solid 
 facet normal  1.207147e-16  7.299531e-02 -9.973323e-01
   outer loop
     vertex  8.000000e+00  2.912023e-01 -1.978687e+00
     vertex  8.000000e+00 -4.898587e-16 -2.000000e+00
     vertex -3.000000e+00 -4.898587e-16 -2.000000e+00
   endloop
 endfacet
 facet normal  1.207921e-16  7.299531e-02 -9.973323e-01
   outer loop
     vertex  8.000000e+00  2.912023e-01 -1.978687e+00
     vertex -3.000000e+00 -4.898587e-16 -2.000000e+00
     vertex -3.000000e+00  2.912023e-01 -1.978687e+00
   endloop
 endfacet
 facet normal  1.182177e-16  2.174302e-01 -9.760759e-01
   outer loop
     vertex  8.000000e+00  2.912023e-01 -1.978687e+00
     vertex -3.000000e+00  2.912023e-01 -1.978687e+00
     vertex -3.000000e+00  5.761982e-01 -1.915201e+00
   endloop
 endfacet
 facet normal  1.182177e-16  2.174302e-01 -9.760759e-01
   outer loop
     vertex  8.000000e+00  5.761982e-01 -1.915201e+00
     vertex  8.000000e+00  2.912023e-01 -1.978687e+00
     vertex -3.000000e+00  5.761982e-01 -1.915201e+00
   endloop
 endfacet
 facet normal  1.131236e-16  3.572309e-01 -9.340161e-01
   outer loop
     vertex  8.000000e+00  8.489134e-01 -1.810896e+00
     vertex -3.000000e+00  5.761982e-01 -1.915201e+00
     vertex -3.000000e+00  8.489134e-01 -1.810896e+00
   endloop
 endfacet
 facet normal  1.056185e-16  4.894178e-01 -8.720494e-01
   outer loop
     vertex  8.000000e+00  8.489134e-01 -1.810896e+00
     vertex -3.000000e+00  8.489134e-01 -1.810896e+00
     vertex -3.000000e+00  1.103535e+00 -1.667996e+00
   endloop
 endfacet
 facet normal  1.134232e-16  3.572309e-01 -9.340161e-01
   outer loop
     vertex  8.000000e+00  8.489134e-01 -1.810896e+00
     vertex  8.000000e+00  5.761982e-01 -1.915201e+00
     vertex -3.000000e+00  5.761982e-01 -1.915201e+00
   endloop
 endfacet
 facet normal  1.056185e-16  4.894178e-01 -8.720494e-01
   outer loop
     vertex  8.000000e+00  1.103535e+00 -1.667996e+00
     vertex  8.000000e+00  8.489134e-01 -1.810896e+00
     vertex -3.000000e+00  1.103535e+00 -1.667996e+00
   endloop
 endfacet
 facet normal  9.505944e-17  6.111737e-01 -7.914965e-01
   outer loop
     vertex  8.000000e+00  1.334638e+00 -1.489544e+00
     vertex  8.000000e+00  1.103535e+00 -1.667996e+00
     vertex -3.000000e+00  1.103535e+00 -1.667996e+00
   endloop
 endfacet
 facet normal  9.586229e-17  6.111737e-01 -7.914965e-01
   outer loop
     vertex  8.000000e+00  1.334638e+00 -1.489544e+00
     vertex -3.000000e+00  1.103535e+00 -1.667996e+00
     vertex -3.000000e+00  1.334638e+00 -1.489544e+00
   endloop
 endfacet
 facet normal  8.425723e-17  7.199035e-01 -6.940742e-01
   outer loop
     vertex  8.000000e+00  1.537294e+00 -1.279346e+00
     vertex  8.000000e+00  1.334638e+00 -1.489544e+00
     vertex -3.000000e+00  1.334638e+00 -1.489544e+00
   endloop
 endfacet
 facet normal  8.406296e-17  7.199035e-01 -6.940742e-01
   outer loop
     vertex  8.000000e+00  1.537294e+00 -1.279346e+00
     vertex -3.000000e+00  1.334638e+00 -1.489544e+00
     vertex -3.000000e+00  1.537294e+00 -1.279346e+00
   endloop
 endfacet
 facet normal  6.913414e-17  8.132897e-01 -5.818589e-01
   outer loop
     vertex  8.000000e+00  1.707186e+00 -1.041881e+00
     vertex  8.000000e+00  1.537294e+00 -1.279346e+00
     vertex -3.000000e+00  1.537294e+00 -1.279346e+00
   endloop
 endfacet
 facet normal  7.047198e-17  8.132897e-01 -5.818589e-01
   outer loop
     vertex  8.000000e+00  1.707186e+00 -1.041881e+00
     vertex -3.000000e+00  1.537294e+00 -1.279346e+00
     vertex -3.000000e+00  1.707186e+00 -1.041881e+00
   endloop
 endfacet
 facet normal  5.401105e-17  8.893421e-01 -4.572423e-01
   outer loop
     vertex  8.000000e+00  1.840692e+00 -7.822094e-01
     vertex  8.000000e+00  1.707186e+00 -1.041881e+00
     vertex -3.000000e+00  1.707186e+00 -1.041881e+00
   endloop
 endfacet
 facet normal  5.076410e-17  8.893421e-01 -4.572423e-01
   outer loop
     vertex  8.000000e+00  1.840692e+00 -7.822094e-01
     vertex -3.000000e+00  1.707186e+00 -1.041881e+00
     vertex -3.000000e+00  1.840692e+00 -7.822094e-01
   endloop
 endfacet
 facet normal  3.564729e-17  9.464398e-01 -3.228804e-01
   outer loop
     vertex  8.000000e+00  1.934967e+00 -5.058668e-01
     vertex  8.000000e+00  1.840692e+00 -7.822094e-01
     vertex -3.000000e+00  1.840692e+00 -7.822094e-01
   endloop
 endfacet
 facet normal  3.584693e-17  9.464398e-01 -3.228804e-01
   outer loop
     vertex  8.000000e+00  1.934967e+00 -5.058668e-01
     vertex -3.000000e+00  1.840692e+00 -7.822094e-01
     vertex -3.000000e+00  1.934967e+00 -5.058668e-01
   endloop
 endfacet
 facet normal  2.052420e-17  9.833657e-01 -1.816369e-01
   outer loop
     vertex  8.000000e+00  1.988002e+00 -2.187424e-01
     vertex  8.000000e+00  1.934967e+00 -5.058668e-01
     vertex -3.000000e+00  1.934967e+00 -5.058668e-01
   endloop
 endfacet
 facet normal  2.016574e-17  9.833657e-01 -1.816369e-01
   outer loop
     vertex  8.000000e+00  1.988002e+00 -2.187424e-01
     vertex -3.000000e+00  1.934967e+00 -5.058668e-01
     vertex -3.000000e+00  1.988002e+00 -2.187424e-01
   endloop
 endfacet
 facet normal  4.050829e-18  9.993328e-01 -3.652202e-02
   outer loop
     vertex  8.000000e+00  1.998666e+00  7.304405e-02
     vertex  8.000000e+00  1.988002e+00 -2.187424e-01
     vertex -3.000000e+00  1.988002e+00 -2.187424e-01
   endloop
 endfacet
 facet normal  4.054759e-18  9.993328e-01 -3.652202e-02
   outer loop
     vertex  8.000000e+00  1.998666e+00  7.304405e-02
     vertex -3.000000e+00  1.988002e+00 -2.187424e-01
     vertex -3.000000e+00  1.998666e+00  7.304405e-02
   endloop
 endfacet
 facet normal -1.188243e-17  9.940010e-01  1.093712e-01
   outer loop
     vertex  8.000000e+00  1.966731e+00  3.632737e-01
     vertex  8.000000e+00  1.998666e+00  7.304405e-02
     vertex -3.000000e+00  1.998666e+00  7.304405e-02
   endloop
 endfacet
 facet normal -1.214264e-17  9.940010e-01  1.093712e-01
   outer loop
     vertex  8.000000e+00  1.966731e+00  3.632737e-01
     vertex -3.000000e+00  1.998666e+00  7.304405e-02
     vertex -3.000000e+00  1.966731e+00  3.632737e-01
   endloop
 endfacet
 facet normal -2.808125e-17  9.674837e-01  2.529334e-01
   outer loop
     vertex  8.000000e+00  1.966731e+00  3.632737e-01
     vertex -3.000000e+00  1.966731e+00  3.632737e-01
     vertex -3.000000e+00  1.892880e+00  6.457608e-01
   endloop
 endfacet
 facet normal -2.808125e-17  9.674837e-01  2.529334e-01
   outer loop
     vertex  8.000000e+00  1.892880e+00  6.457608e-01
     vertex  8.000000e+00  1.966731e+00  3.632737e-01
     vertex -3.000000e+00  1.892880e+00  6.457608e-01
   endloop
 endfacet
 facet normal -4.428906e-17  9.203462e-01  3.911047e-01
   outer loop
     vertex  8.000000e+00  1.778684e+00  9.144846e-01
     vertex  8.000000e+00  1.892880e+00  6.457608e-01
     vertex -3.000000e+00  1.892880e+00  6.457608e-01
   endloop
 endfacet
 facet normal -4.342135e-17  9.203462e-01  3.911047e-01
   outer loop
     vertex  8.000000e+00  1.778684e+00  9.144846e-01
     vertex -3.000000e+00  1.892880e+00  6.457608e-01
     vertex -3.000000e+00  1.778684e+00  9.144846e-01
   endloop
 endfacet
 facet normal -5.833193e-17  8.535931e-01  5.209403e-01
   outer loop
     vertex  8.000000e+00  1.626579e+00  1.163718e+00
     vertex  8.000000e+00  1.778684e+00  9.144846e-01
     vertex -3.000000e+00  1.778684e+00  9.144846e-01
   endloop
 endfacet
 facet normal -6.309381e-17  8.535931e-01  5.209403e-01
   outer loop
     vertex  8.000000e+00  1.626579e+00  1.163718e+00
     vertex -3.000000e+00  1.778684e+00  9.144846e-01
     vertex -3.000000e+00  1.626579e+00  1.163718e+00
   endloop
 endfacet
 facet normal -7.777591e-17  7.686471e-01  6.396730e-01
   outer loop
     vertex  8.000000e+00  1.439807e+00  1.388148e+00
     vertex  8.000000e+00  1.626579e+00  1.163718e+00
     vertex -3.000000e+00  1.626579e+00  1.163718e+00
   endloop
 endfacet
 facet normal -7.747415e-17  7.686471e-01  6.396730e-01
   outer loop
     vertex  8.000000e+00  1.439807e+00  1.388148e+00
     vertex -3.000000e+00  1.626579e+00  1.163718e+00
     vertex -3.000000e+00  1.439807e+00  1.388148e+00
   endloop
 endfacet
 facet normal -9.020326e-17  6.673188e-01  7.447722e-01
   outer loop
     vertex  8.000000e+00  1.439807e+00  1.388148e+00
     vertex -3.000000e+00  1.439807e+00  1.388148e+00
     vertex -3.000000e+00  1.222347e+00  1.582993e+00
   endloop
 endfacet
 facet normal -9.020326e-17  6.673188e-01  7.447722e-01
   outer loop
     vertex  8.000000e+00  1.222347e+00  1.582993e+00
     vertex  8.000000e+00  1.439807e+00  1.388148e+00
     vertex -3.000000e+00  1.222347e+00  1.582993e+00
   endloop
 endfacet
 facet normal -1.010098e-16  5.517677e-01  8.339978e-01
   outer loop
     vertex  8.000000e+00  9.788357e-01  1.744099e+00
     vertex -3.000000e+00  1.222347e+00  1.582993e+00
     vertex -3.000000e+00  9.788357e-01  1.744099e+00
   endloop
 endfacet
 facet normal -1.015408e-16  5.517677e-01  8.339978e-01
   outer loop
     vertex  8.000000e+00  9.788357e-01  1.744099e+00
     vertex  8.000000e+00  1.222347e+00  1.582993e+00
     vertex -3.000000e+00  1.222347e+00  1.582993e+00
   endloop
 endfacet
 facet normal -1.101825e-16  4.244567e-01  9.054482e-01
   outer loop
     vertex  8.000000e+00  7.144618e-01  1.868032e+00
     vertex  8.000000e+00  9.788357e-01  1.744099e+00
     vertex -3.000000e+00  9.788357e-01  1.744099e+00
   endloop
 endfacet
 facet normal -1.096636e-16  4.244567e-01  9.054482e-01
   outer loop
     vertex  8.000000e+00  7.144618e-01  1.868032e+00
     vertex -3.000000e+00  9.788357e-01  1.744099e+00
     vertex -3.000000e+00  7.144618e-01  1.868032e+00
   endloop
 endfacet
 facet normal -1.159800e-16  2.880991e-01  9.576006e-01
   outer loop
     vertex  8.000000e+00  4.348604e-01  1.952152e+00
     vertex -3.000000e+00  7.144618e-01  1.868032e+00
     vertex -3.000000e+00  4.348604e-01  1.952152e+00
   endloop
 endfacet
 facet normal -1.155836e-16  2.880991e-01  9.576006e-01
   outer loop
     vertex  8.000000e+00  4.348604e-01  1.952152e+00
     vertex  8.000000e+00  7.144618e-01  1.868032e+00
     vertex -3.000000e+00  7.144618e-01  1.868032e+00
   endloop
 endfacet
 facet normal -1.198246e-16  1.456012e-01  9.893434e-01
   outer loop
     vertex  8.000000e+00  1.459906e-01  1.994665e+00
     vertex -3.000000e+00  4.348604e-01  1.952152e+00
     vertex -3.000000e+00  1.459906e-01  1.994665e+00
   endloop
 endfacet
 facet normal -1.211152e-16  1.520951e-15  1.000000e+00
   outer loop
     vertex  8.000000e+00  1.459906e-01  1.994665e+00
     vertex -3.000000e+00  1.459906e-01  1.994665e+00
     vertex -3.000000e+00 -1.459906e-01  1.994665e+00
   endloop
 endfacet
 facet normal -1.199045e-16  1.456012e-01  9.893434e-01
   outer loop
     vertex  8.000000e+00  1.459906e-01  1.994665e+00
     vertex  8.000000e+00  4.348604e-01  1.952152e+00
     vertex -3.000000e+00  4.348604e-01  1.952152e+00
   endloop
 endfacet
 facet normal -1.211152e-16  1.520951e-15  1.000000e+00
   outer loop
     vertex  8.000000e+00 -1.459906e-01  1.994665e+00
     vertex  8.000000e+00  1.459906e-01  1.994665e+00
     vertex -3.000000e+00 -1.459906e-01  1.994665e+00
   endloop
 endfacet
 facet normal -1.198246e-16 -1.456012e-01  9.893434e-01
   outer loop
     vertex  8.000000e+00 -4.348604e-01  1.952152e+00
     vertex -3.000000e+00 -1.459906e-01  1.994665e+00
     vertex -3.000000e+00 -4.348604e-01  1.952152e+00
   endloop
 endfacet
 facet normal -1.199045e-16 -1.456012e-01  9.893434e-01
   outer loop
     vertex  8.000000e+00 -4.348604e-01  1.952152e+00
     vertex  8.000000e+00 -1.459906e-01  1.994665e+00
     vertex -3.000000e+00 -1.459906e-01  1.994665e+00
   endloop
 endfacet
 facet normal -1.159800e-16 -2.880991e-01  9.576006e-01
   outer loop
     vertex  8.000000e+00 -7.144618e-01  1.868032e+00
     vertex -3.000000e+00 -4.348604e-01  1.952152e+00
     vertex -3.000000e+00 -7.144618e-01  1.868032e+00
   endloop
 endfacet
 facet normal -1.096636e-16 -4.244567e-01  9.054482e-01
   outer loop
     vertex  8.000000e+00 -7.144618e-01  1.868032e+00
     vertex -3.000000e+00 -7.144618e-01  1.868032e+00
     vertex -3.000000e+00 -9.788357e-01  1.744099e+00
   endloop
 endfacet
 facet normal -1.166639e-16 -2.880991e-01  9.576006e-01
   outer loop
     vertex  8.000000e+00 -7.144618e-01  1.868032e+00
     vertex  8.000000e+00 -4.348604e-01  1.952152e+00
     vertex -3.000000e+00 -4.348604e-01  1.952152e+00
   endloop
 endfacet
 facet normal -1.096636e-16 -4.244567e-01  9.054482e-01
   outer loop
     vertex  8.000000e+00 -9.788357e-01  1.744099e+00
     vertex  8.000000e+00 -7.144618e-01  1.868032e+00
     vertex -3.000000e+00 -9.788357e-01  1.744099e+00
   endloop
 endfacet
 facet normal -1.010098e-16 -5.517677e-01  8.339978e-01
   outer loop
     vertex  8.000000e+00 -1.222347e+00  1.582993e+00
     vertex -3.000000e+00 -9.788357e-01  1.744099e+00
     vertex -3.000000e+00 -1.222347e+00  1.582993e+00
   endloop
 endfacet
 facet normal -9.020326e-17 -6.673188e-01  7.447722e-01
   outer loop
     vertex  8.000000e+00 -1.222347e+00  1.582993e+00
     vertex -3.000000e+00 -1.222347e+00  1.582993e+00
     vertex -3.000000e+00 -1.439807e+00  1.388148e+00
   endloop
 endfacet
 facet normal -1.015408e-16 -5.517677e-01  8.339978e-01
   outer loop
     vertex  8.000000e+00 -1.222347e+00  1.582993e+00
     vertex  8.000000e+00 -9.788357e-01  1.744099e+00
     vertex -3.000000e+00 -9.788357e-01  1.744099e+00
   endloop
 endfacet
 facet normal -9.020326e-17 -6.673188e-01  7.447722e-01
   outer loop
     vertex  8.000000e+00 -1.439807e+00  1.388148e+00
     vertex  8.000000e+00 -1.222347e+00  1.582993e+00
     vertex -3.000000e+00 -1.439807e+00  1.388148e+00
   endloop
 endfacet
 facet normal -7.561547e-17 -7.686471e-01  6.396730e-01
   outer loop
     vertex  8.000000e+00 -1.626579e+00  1.163718e+00
     vertex  8.000000e+00 -1.439807e+00  1.388148e+00
     vertex -3.000000e+00 -1.439807e+00  1.388148e+00
   endloop
 endfacet
 facet normal -7.747415e-17 -7.686471e-01  6.396730e-01
   outer loop
     vertex  8.000000e+00 -1.626579e+00  1.163718e+00
     vertex -3.000000e+00 -1.439807e+00  1.388148e+00
     vertex -3.000000e+00 -1.626579e+00  1.163718e+00
   endloop
 endfacet
 facet normal -6.265281e-17 -8.535931e-01  5.209403e-01
   outer loop
     vertex  8.000000e+00 -1.778684e+00  9.144846e-01
     vertex  8.000000e+00 -1.626579e+00  1.163718e+00
     vertex -3.000000e+00 -1.626579e+00  1.163718e+00
   endloop
 endfacet
 facet normal -5.783600e-17 -8.535931e-01  5.209403e-01
   outer loop
     vertex  8.000000e+00 -1.778684e+00  9.144846e-01
     vertex -3.000000e+00 -1.626579e+00  1.163718e+00
     vertex -3.000000e+00 -1.778684e+00  9.144846e-01
   endloop
 endfacet
 facet normal -4.320884e-17 -9.203462e-01  3.911047e-01
   outer loop
     vertex  8.000000e+00 -1.892880e+00  6.457608e-01
     vertex  8.000000e+00 -1.778684e+00  9.144846e-01
     vertex -3.000000e+00 -1.778684e+00  9.144846e-01
   endloop
 endfacet
 facet normal -4.342135e-17 -9.203462e-01  3.911047e-01
   outer loop
     vertex  8.000000e+00 -1.892880e+00  6.457608e-01
     vertex -3.000000e+00 -1.778684e+00  9.144846e-01
     vertex -3.000000e+00 -1.892880e+00  6.457608e-01
   endloop
 endfacet
 facet normal -2.808574e-17 -9.674837e-01  2.529334e-01
   outer loop
     vertex  8.000000e+00 -1.966731e+00  3.632737e-01
     vertex  8.000000e+00 -1.892880e+00  6.457608e-01
     vertex -3.000000e+00 -1.892880e+00  6.457608e-01
   endloop
 endfacet
 facet normal -2.808125e-17 -9.674837e-01  2.529334e-01
   outer loop
     vertex  8.000000e+00 -1.966731e+00  3.632737e-01
     vertex -3.000000e+00 -1.892880e+00  6.457608e-01
     vertex -3.000000e+00 -1.966731e+00  3.632737e-01
   endloop
 endfacet
 facet normal -1.188243e-17 -9.940010e-01  1.093712e-01
   outer loop
     vertex  8.000000e+00 -1.998666e+00  7.304405e-02
     vertex  8.000000e+00 -1.966731e+00  3.632737e-01
     vertex -3.000000e+00 -1.966731e+00  3.632737e-01
   endloop
 endfacet
 facet normal -1.214264e-17 -9.940010e-01  1.093712e-01
   outer loop
     vertex  8.000000e+00 -1.998666e+00  7.304405e-02
     vertex -3.000000e+00 -1.966731e+00  3.632737e-01
     vertex -3.000000e+00 -1.998666e+00  7.304405e-02
   endloop
 endfacet
 facet normal  4.050829e-18 -9.993328e-01 -3.652202e-02
   outer loop
     vertex  8.000000e+00 -1.988002e+00 -2.187424e-01
     vertex  8.000000e+00 -1.998666e+00  7.304405e-02
     vertex -3.000000e+00 -1.998666e+00  7.304405e-02
   endloop
 endfacet
 facet normal  4.054759e-18 -9.993328e-01 -3.652202e-02
   outer loop
     vertex  8.000000e+00 -1.988002e+00 -2.187424e-01
     vertex -3.000000e+00 -1.998666e+00  7.304405e-02
     vertex -3.000000e+00 -1.988002e+00 -2.187424e-01
   endloop
 endfacet
 facet normal  2.016574e-17 -9.833657e-01 -1.816369e-01
   outer loop
     vertex  8.000000e+00 -1.988002e+00 -2.187424e-01
     vertex -3.000000e+00 -1.988002e+00 -2.187424e-01
     vertex -3.000000e+00 -1.934967e+00 -5.058668e-01
   endloop
 endfacet
 facet normal  2.016574e-17 -9.833657e-01 -1.816369e-01
   outer loop
     vertex  8.000000e+00 -1.934967e+00 -5.058668e-01
     vertex  8.000000e+00 -1.988002e+00 -2.187424e-01
     vertex -3.000000e+00 -1.934967e+00 -5.058668e-01
   endloop
 endfacet
 facet normal  3.564729e-17 -9.464398e-01 -3.228804e-01
   outer loop
     vertex  8.000000e+00 -1.840692e+00 -7.822094e-01
     vertex  8.000000e+00 -1.934967e+00 -5.058668e-01
     vertex -3.000000e+00 -1.934967e+00 -5.058668e-01
   endloop
 endfacet
 facet normal  3.584693e-17 -9.464398e-01 -3.228804e-01
   outer loop
     vertex  8.000000e+00 -1.840692e+00 -7.822094e-01
     vertex -3.000000e+00 -1.934967e+00 -5.058668e-01
     vertex -3.000000e+00 -1.840692e+00 -7.822094e-01
   endloop
 endfacet
 facet normal  5.076410e-17 -8.893421e-01 -4.572423e-01
   outer loop
     vertex  8.000000e+00 -1.840692e+00 -7.822094e-01
     vertex -3.000000e+00 -1.840692e+00 -7.822094e-01
     vertex -3.000000e+00 -1.707186e+00 -1.041881e+00
   endloop
 endfacet
 facet normal  5.537901e-17 -8.893421e-01 -4.572423e-01
   outer loop
     vertex  8.000000e+00 -1.707186e+00 -1.041881e+00
     vertex  8.000000e+00 -1.840692e+00 -7.822094e-01
     vertex -3.000000e+00 -1.707186e+00 -1.041881e+00
   endloop
 endfacet
 facet normal  7.129458e-17 -8.132897e-01 -5.818589e-01
   outer loop
     vertex  8.000000e+00 -1.537294e+00 -1.279346e+00
     vertex  8.000000e+00 -1.707186e+00 -1.041881e+00
     vertex -3.000000e+00 -1.707186e+00 -1.041881e+00
   endloop
 endfacet
 facet normal  7.047198e-17 -8.132897e-01 -5.818589e-01
   outer loop
     vertex  8.000000e+00 -1.537294e+00 -1.279346e+00
     vertex -3.000000e+00 -1.707186e+00 -1.041881e+00
     vertex -3.000000e+00 -1.537294e+00 -1.279346e+00
   endloop
 endfacet
 facet normal  8.425723e-17 -7.199035e-01 -6.940742e-01
   outer loop
     vertex  8.000000e+00 -1.334638e+00 -1.489544e+00
     vertex  8.000000e+00 -1.537294e+00 -1.279346e+00
     vertex -3.000000e+00 -1.537294e+00 -1.279346e+00
   endloop
 endfacet
 facet normal  8.406296e-17 -7.199035e-01 -6.940742e-01
   outer loop
     vertex  8.000000e+00 -1.334638e+00 -1.489544e+00
     vertex -3.000000e+00 -1.537294e+00 -1.279346e+00
     vertex -3.000000e+00 -1.334638e+00 -1.489544e+00
   endloop
 endfacet
 facet normal  9.586229e-17 -6.111737e-01 -7.914965e-01
   outer loop
     vertex  8.000000e+00 -1.334638e+00 -1.489544e+00
     vertex -3.000000e+00 -1.334638e+00 -1.489544e+00
     vertex -3.000000e+00 -1.103535e+00 -1.667996e+00
   endloop
 endfacet
 facet normal  9.586229e-17 -6.111737e-01 -7.914965e-01
   outer loop
     vertex  8.000000e+00 -1.103535e+00 -1.667996e+00
     vertex  8.000000e+00 -1.334638e+00 -1.489544e+00
     vertex -3.000000e+00 -1.103535e+00 -1.667996e+00
   endloop
 endfacet
 facet normal  1.056185e-16 -4.894178e-01 -8.720494e-01
   outer loop
     vertex  8.000000e+00 -1.103535e+00 -1.667996e+00
     vertex -3.000000e+00 -1.103535e+00 -1.667996e+00
     vertex -3.000000e+00 -8.489134e-01 -1.810896e+00
   endloop
 endfacet
 facet normal  1.056185e-16 -4.894178e-01 -8.720494e-01
   outer loop
     vertex  8.000000e+00 -8.489134e-01 -1.810896e+00
     vertex  8.000000e+00 -1.103535e+00 -1.667996e+00
     vertex -3.000000e+00 -8.489134e-01 -1.810896e+00
   endloop
 endfacet
 facet normal  1.131236e-16 -3.572309e-01 -9.340161e-01
   outer loop
     vertex  8.000000e+00 -8.489134e-01 -1.810896e+00
     vertex -3.000000e+00 -8.489134e-01 -1.810896e+00
     vertex -3.000000e+00 -5.761982e-01 -1.915201e+00
   endloop
 endfacet
 facet normal  1.131236e-16 -3.572309e-01 -9.340161e-01
   outer loop
     vertex  8.000000e+00 -5.761982e-01 -1.915201e+00
     vertex  8.000000e+00 -8.489134e-01 -1.810896e+00
     vertex -3.000000e+00 -5.761982e-01 -1.915201e+00
   endloop
 endfacet
 facet normal  1.182177e-16 -2.174302e-01 -9.760759e-01
   outer loop
     vertex  8.000000e+00 -5.761982e-01 -1.915201e+00
     vertex -3.000000e+00 -5.761982e-01 -1.915201e+00
     vertex -3.000000e+00 -2.912023e-01 -1.978687e+00
   endloop
 endfacet
 facet normal  1.182177e-16 -2.174302e-01 -9.760759e-01
   outer loop
     vertex  8.000000e+00 -2.912023e-01 -1.978687e+00
     vertex  8.000000e+00 -5.761982e-01 -1.915201e+00
     vertex -3.000000e+00 -2.912023e-01 -1.978687e+00
   endloop
 endfacet
 facet normal  1.207147e-16 -7.299531e-02 -9.973323e-01
   outer loop
     vertex  8.000000e+00 -4.898587e-16 -2.000000e+00
     vertex  8.000000e+00 -2.912023e-01 -1.978687e+00
     vertex -3.000000e+00 -2.912023e-01 -1.978687e+00
   endloop
 endfacet
 facet normal  1.207921e-16 -7.299531e-02 -9.973323e-01
   outer loop
     vertex  8.000000e+00 -4.898587e-16 -2.000000e+00
     vertex -3.000000e+00 -2.912023e-01 -1.978687e+00
     vertex -3.000000e+00 -4.898587e-16 -2.000000e+00
   endloop
 endfacet
endsolid
