solid 
 facet normal  1.107261e-16  7.299531e-02 -9.973323e-01
   outer loop
     vertex  1.300000e+01 -7.347881e-16 -3.000000e+00
     vertex -3.000000e+00 -7.347881e-16 -3.000000e+00
     vertex -3.000000e+00  4.368035e-01 -2.968030e+00
   endloop
 endfacet
 facet normal  1.107261e-16  7.299531e-02 -9.973323e-01
   outer loop
     vertex  1.300000e+01  4.368035e-01 -2.968030e+00
     vertex  1.300000e+01 -7.347881e-16 -3.000000e+00
     vertex -3.000000e+00  4.368035e-01 -2.968030e+00
   endloop
 endfacet
 facet normal  1.083662e-16  2.174302e-01 -9.760759e-01
   outer loop
     vertex  1.300000e+01  8.642973e-01 -2.872802e+00
     vertex -3.000000e+00  4.368035e-01 -2.968030e+00
     vertex -3.000000e+00  8.642973e-01 -2.872802e+00
   endloop
 endfacet
 facet normal  1.079321e-16  2.174302e-01 -9.760759e-01
   outer loop
     vertex  1.300000e+01  8.642973e-01 -2.872802e+00
     vertex  1.300000e+01  4.368035e-01 -2.968030e+00
     vertex -3.000000e+00  4.368035e-01 -2.968030e+00
   endloop
 endfacet
 facet normal  1.029811e-16  3.572309e-01 -9.340161e-01
   outer loop
     vertex  1.300000e+01  1.273370e+00 -2.716345e+00
     vertex  1.300000e+01  8.642973e-01 -2.872802e+00
     vertex -3.000000e+00  8.642973e-01 -2.872802e+00
   endloop
 endfacet
 facet normal  1.036966e-16  3.572309e-01 -9.340161e-01
   outer loop
     vertex  1.300000e+01  1.273370e+00 -2.716345e+00
     vertex -3.000000e+00  8.642973e-01 -2.872802e+00
     vertex -3.000000e+00  1.273370e+00 -2.716345e+00
   endloop
 endfacet
 facet normal  9.681693e-17  4.894178e-01 -8.720494e-01
   outer loop
     vertex  1.300000e+01  1.273370e+00 -2.716345e+00
     vertex -3.000000e+00  1.273370e+00 -2.716345e+00
     vertex -3.000000e+00  1.655303e+00 -2.501993e+00
   endloop
 endfacet
 facet normal  9.681693e-17  4.894178e-01 -8.720494e-01
   outer loop
     vertex  1.300000e+01  1.655303e+00 -2.501993e+00
     vertex  1.300000e+01  1.273370e+00 -2.716345e+00
     vertex -3.000000e+00  1.655303e+00 -2.501993e+00
   endloop
 endfacet
 facet normal  8.911823e-17  6.111737e-01 -7.914965e-01
   outer loop
     vertex  1.300000e+01  2.001956e+00 -2.234317e+00
     vertex  1.300000e+01  1.655303e+00 -2.501993e+00
     vertex -3.000000e+00  1.655303e+00 -2.501993e+00
   endloop
 endfacet
 facet normal  8.787376e-17  6.111737e-01 -7.914965e-01
   outer loop
     vertex  1.300000e+01  2.001956e+00 -2.234317e+00
     vertex -3.000000e+00  1.655303e+00 -2.501993e+00
     vertex -3.000000e+00  2.001956e+00 -2.234317e+00
   endloop
 endfacet
 facet normal  7.723580e-17  7.199035e-01 -6.940742e-01
   outer loop
     vertex  1.300000e+01  2.305941e+00 -1.919019e+00
     vertex  1.300000e+01  2.001956e+00 -2.234317e+00
     vertex -3.000000e+00  2.001956e+00 -2.234317e+00
   endloop
 endfacet
 facet normal  7.705772e-17  7.199035e-01 -6.940742e-01
   outer loop
     vertex  1.300000e+01  2.305941e+00 -1.919019e+00
     vertex -3.000000e+00  2.001956e+00 -2.234317e+00
     vertex -3.000000e+00  2.305941e+00 -1.919019e+00
   endloop
 endfacet
 facet normal  6.459932e-17  8.132897e-01 -5.818589e-01
   outer loop
     vertex  1.300000e+01  2.305941e+00 -1.919019e+00
     vertex -3.000000e+00  2.305941e+00 -1.919019e+00
     vertex -3.000000e+00  2.560779e+00 -1.562821e+00
   endloop
 endfacet
 facet normal  6.459932e-17  8.132897e-01 -5.818589e-01
   outer loop
     vertex  1.300000e+01  2.560779e+00 -1.562821e+00
     vertex  1.300000e+01  2.305941e+00 -1.919019e+00
     vertex -3.000000e+00  2.560779e+00 -1.562821e+00
   endloop
 endfacet
 facet normal  5.076410e-17  8.893421e-01 -4.572423e-01
   outer loop
     vertex  1.300000e+01  2.560779e+00 -1.562821e+00
     vertex -3.000000e+00  2.560779e+00 -1.562821e+00
     vertex -3.000000e+00  2.761039e+00 -1.173314e+00
   endloop
 endfacet
 facet normal  5.076410e-17  8.893421e-01 -4.572423e-01
   outer loop
     vertex  1.300000e+01  2.761039e+00 -1.173314e+00
     vertex  1.300000e+01  2.560779e+00 -1.562821e+00
     vertex -3.000000e+00  2.761039e+00 -1.173314e+00
   endloop
 endfacet
 facet normal  3.584693e-17  9.464398e-01 -3.228804e-01
   outer loop
     vertex  1.300000e+01  2.761039e+00 -1.173314e+00
     vertex -3.000000e+00  2.761039e+00 -1.173314e+00
     vertex -3.000000e+00  2.902451e+00 -7.588001e-01
   endloop
 endfacet
 facet normal  3.584693e-17  9.464398e-01 -3.228804e-01
   outer loop
     vertex  1.300000e+01  2.902451e+00 -7.588001e-01
     vertex  1.300000e+01  2.761039e+00 -1.173314e+00
     vertex -3.000000e+00  2.902451e+00 -7.588001e-01
   endloop
 endfacet
 facet normal  1.980405e-17  9.833657e-01 -1.816369e-01
   outer loop
     vertex  1.300000e+01  2.982003e+00 -3.281136e-01
     vertex  1.300000e+01  2.902451e+00 -7.588001e-01
     vertex -3.000000e+00  2.902451e+00 -7.588001e-01
   endloop
 endfacet
 facet normal  2.016574e-17  9.833657e-01 -1.816369e-01
   outer loop
     vertex  1.300000e+01  2.982003e+00 -3.281136e-01
     vertex -3.000000e+00  2.902451e+00 -7.588001e-01
     vertex -3.000000e+00  2.982003e+00 -3.281136e-01
   endloop
 endfacet
 facet normal  4.084585e-18  9.993328e-01 -3.652202e-02
   outer loop
     vertex  1.300000e+01  2.997999e+00  1.095661e-01
     vertex  1.300000e+01  2.982003e+00 -3.281136e-01
     vertex -3.000000e+00  2.982003e+00 -3.281136e-01
   endloop
 endfacet
 facet normal  4.054759e-18  9.993328e-01 -3.652202e-02
   outer loop
     vertex  1.300000e+01  2.997999e+00  1.095661e-01
     vertex -3.000000e+00  2.982003e+00 -3.281136e-01
     vertex -3.000000e+00  2.997999e+00  1.095661e-01
   endloop
 endfacet
 facet normal -1.237753e-17  9.940010e-01  1.093712e-01
   outer loop
     vertex  1.300000e+01  2.950097e+00  5.449106e-01
     vertex  1.300000e+01  2.997999e+00  1.095661e-01
     vertex -3.000000e+00  2.997999e+00  1.095661e-01
   endloop
 endfacet
 facet normal -1.214264e-17  9.940010e-01  1.093712e-01
   outer loop
     vertex  1.300000e+01  2.950097e+00  5.449106e-01
     vertex -3.000000e+00  2.997999e+00  1.095661e-01
     vertex -3.000000e+00  2.950097e+00  5.449106e-01
   endloop
 endfacet
 facet normal -2.808125e-17  9.674837e-01  2.529334e-01
   outer loop
     vertex  1.300000e+01  2.950097e+00  5.449106e-01
     vertex -3.000000e+00  2.950097e+00  5.449106e-01
     vertex -3.000000e+00  2.839319e+00  9.686412e-01
   endloop
 endfacet
 facet normal -2.808125e-17  9.674837e-01  2.529334e-01
   outer loop
     vertex  1.300000e+01  2.839319e+00  9.686412e-01
     vertex  1.300000e+01  2.950097e+00  5.449106e-01
     vertex -3.000000e+00  2.839319e+00  9.686412e-01
   endloop
 endfacet
 facet normal -4.356891e-17  9.203462e-01  3.911047e-01
   outer loop
     vertex  1.300000e+01  2.668026e+00  1.371727e+00
     vertex  1.300000e+01  2.839319e+00  9.686412e-01
     vertex -3.000000e+00  2.839319e+00  9.686412e-01
   endloop
 endfacet
 facet normal -4.342135e-17  9.203462e-01  3.911047e-01
   outer loop
     vertex  1.300000e+01  2.668026e+00  1.371727e+00
     vertex -3.000000e+00  2.839319e+00  9.686412e-01
     vertex -3.000000e+00  2.668026e+00  1.371727e+00
   endloop
 endfacet
 facet normal -5.743175e-17  8.535931e-01  5.209403e-01
   outer loop
     vertex  1.300000e+01  2.439869e+00  1.745577e+00
     vertex  1.300000e+01  2.668026e+00  1.371727e+00
     vertex -3.000000e+00  2.668026e+00  1.371727e+00
   endloop
 endfacet
 facet normal -5.783600e-17  8.535931e-01  5.209403e-01
   outer loop
     vertex  1.300000e+01  2.439869e+00  1.745577e+00
     vertex -3.000000e+00  2.668026e+00  1.371727e+00
     vertex -3.000000e+00  2.439869e+00  1.745577e+00
   endloop
 endfacet
 facet normal -7.129458e-17  7.686471e-01  6.396730e-01
   outer loop
     vertex  1.300000e+01  2.159710e+00  2.082223e+00
     vertex  1.300000e+01  2.439869e+00  1.745577e+00
     vertex -3.000000e+00  2.439869e+00  1.745577e+00
   endloop
 endfacet
 facet normal -7.101797e-17  7.686471e-01  6.396730e-01
   outer loop
     vertex  1.300000e+01  2.159710e+00  2.082223e+00
     vertex -3.000000e+00  2.439869e+00  1.745577e+00
     vertex -3.000000e+00  2.159710e+00  2.082223e+00
   endloop
 endfacet
 facet normal -8.268632e-17  6.673188e-01  7.447722e-01
   outer loop
     vertex  1.300000e+01  1.833521e+00  2.374489e+00
     vertex -3.000000e+00  2.159710e+00  2.082223e+00
     vertex -3.000000e+00  1.833521e+00  2.374489e+00
   endloop
 endfacet
 facet normal -8.119661e-17  6.673188e-01  7.447722e-01
   outer loop
     vertex  1.300000e+01  1.833521e+00  2.374489e+00
     vertex  1.300000e+01  2.159710e+00  2.082223e+00
     vertex -3.000000e+00  2.159710e+00  2.082223e+00
   endloop
 endfacet
 facet normal -9.259236e-17  5.517677e-01  8.339978e-01
   outer loop
     vertex  1.300000e+01  1.468254e+00  2.616148e+00
     vertex -3.000000e+00  1.833521e+00  2.374489e+00
     vertex -3.000000e+00  1.468254e+00  2.616148e+00
   endloop
 endfacet
 facet normal -9.307904e-17  5.517677e-01  8.339978e-01
   outer loop
     vertex  1.300000e+01  1.468254e+00  2.616148e+00
     vertex  1.300000e+01  1.833521e+00  2.374489e+00
     vertex -3.000000e+00  1.833521e+00  2.374489e+00
   endloop
 endfacet
 facet normal -1.005249e-16  4.244567e-01  9.054482e-01
   outer loop
     vertex  1.300000e+01  1.071693e+00  2.802048e+00
     vertex -3.000000e+00  1.468254e+00  2.616148e+00
     vertex -3.000000e+00  1.071693e+00  2.802048e+00
   endloop
 endfacet
 facet normal -1.063150e-16  2.880991e-01  9.576006e-01
   outer loop
     vertex  1.300000e+01  1.071693e+00  2.802048e+00
     vertex -3.000000e+00  1.071693e+00  2.802048e+00
     vertex -3.000000e+00  6.522905e-01  2.928228e+00
   endloop
 endfacet
 facet normal -1.010007e-16  4.244567e-01  9.054482e-01
   outer loop
     vertex  1.300000e+01  1.071693e+00  2.802048e+00
     vertex  1.300000e+01  1.468254e+00  2.616148e+00
     vertex -3.000000e+00  1.468254e+00  2.616148e+00
   endloop
 endfacet
 facet normal -1.063150e-16  2.880991e-01  9.576006e-01
   outer loop
     vertex  1.300000e+01  6.522905e-01  2.928228e+00
     vertex  1.300000e+01  1.071693e+00  2.802048e+00
     vertex -3.000000e+00  6.522905e-01  2.928228e+00
   endloop
 endfacet
 facet normal -1.098392e-16  1.456012e-01  9.893434e-01
   outer loop
     vertex  1.300000e+01  2.189859e-01  2.991997e+00
     vertex -3.000000e+00  6.522905e-01  2.928228e+00
     vertex -3.000000e+00  2.189859e-01  2.991997e+00
   endloop
 endfacet
 facet normal -1.099125e-16  1.456012e-01  9.893434e-01
   outer loop
     vertex  1.300000e+01  2.189859e-01  2.991997e+00
     vertex  1.300000e+01  6.522905e-01  2.928228e+00
     vertex -3.000000e+00  6.522905e-01  2.928228e+00
   endloop
 endfacet
 facet normal -1.110223e-16  1.013967e-15  1.000000e+00
   outer loop
     vertex  1.300000e+01 -2.189859e-01  2.991997e+00
     vertex -3.000000e+00  2.189859e-01  2.991997e+00
     vertex -3.000000e+00 -2.189859e-01  2.991997e+00
   endloop
 endfacet
 facet normal -1.098392e-16 -1.456012e-01  9.893434e-01
   outer loop
     vertex  1.300000e+01 -2.189859e-01  2.991997e+00
     vertex -3.000000e+00 -2.189859e-01  2.991997e+00
     vertex -3.000000e+00 -6.522905e-01  2.928228e+00
   endloop
 endfacet
 facet normal -1.110223e-16  1.013967e-15  1.000000e+00
   outer loop
     vertex  1.300000e+01 -2.189859e-01  2.991997e+00
     vertex  1.300000e+01  2.189859e-01  2.991997e+00
     vertex -3.000000e+00  2.189859e-01  2.991997e+00
   endloop
 endfacet
 facet normal -1.063150e-16 -2.880991e-01  9.576006e-01
   outer loop
     vertex  1.300000e+01 -6.522905e-01  2.928228e+00
     vertex -3.000000e+00 -6.522905e-01  2.928228e+00
     vertex -3.000000e+00 -1.071693e+00  2.802048e+00
   endloop
 endfacet
 facet normal -1.098392e-16 -1.456012e-01  9.893434e-01
   outer loop
     vertex  1.300000e+01 -6.522905e-01  2.928228e+00
     vertex  1.300000e+01 -2.189859e-01  2.991997e+00
     vertex -3.000000e+00 -6.522905e-01  2.928228e+00
   endloop
 endfacet
 facet normal -1.063150e-16 -2.880991e-01  9.576006e-01
   outer loop
     vertex  1.300000e+01 -1.071693e+00  2.802048e+00
     vertex  1.300000e+01 -6.522905e-01  2.928228e+00
     vertex -3.000000e+00 -1.071693e+00  2.802048e+00
   endloop
 endfacet
 facet normal -1.005249e-16 -4.244567e-01  9.054482e-01
   outer loop
     vertex  1.300000e+01 -1.468254e+00  2.616148e+00
     vertex -3.000000e+00 -1.071693e+00  2.802048e+00
     vertex -3.000000e+00 -1.468254e+00  2.616148e+00
   endloop
 endfacet
 facet normal -1.010007e-16 -4.244567e-01  9.054482e-01
   outer loop
     vertex  1.300000e+01 -1.468254e+00  2.616148e+00
     vertex  1.300000e+01 -1.071693e+00  2.802048e+00
     vertex -3.000000e+00 -1.071693e+00  2.802048e+00
   endloop
 endfacet
 facet normal -9.259236e-17 -5.517677e-01  8.339978e-01
   outer loop
     vertex  1.300000e+01 -1.833521e+00  2.374489e+00
     vertex -3.000000e+00 -1.468254e+00  2.616148e+00
     vertex -3.000000e+00 -1.833521e+00  2.374489e+00
   endloop
 endfacet
 facet normal -8.268632e-17 -6.673188e-01  7.447722e-01
   outer loop
     vertex  1.300000e+01 -1.833521e+00  2.374489e+00
     vertex -3.000000e+00 -1.833521e+00  2.374489e+00
     vertex -3.000000e+00 -2.159710e+00  2.082223e+00
   endloop
 endfacet
 facet normal -9.307904e-17 -5.517677e-01  8.339978e-01
   outer loop
     vertex  1.300000e+01 -1.833521e+00  2.374489e+00
     vertex  1.300000e+01 -1.468254e+00  2.616148e+00
     vertex -3.000000e+00 -1.468254e+00  2.616148e+00
   endloop
 endfacet
 facet normal -8.268632e-17 -6.673188e-01  7.447722e-01
   outer loop
     vertex  1.300000e+01 -2.159710e+00  2.082223e+00
     vertex  1.300000e+01 -1.833521e+00  2.374489e+00
     vertex -3.000000e+00 -2.159710e+00  2.082223e+00
   endloop
 endfacet
 facet normal -7.129458e-17 -7.686471e-01  6.396730e-01
   outer loop
     vertex  1.300000e+01 -2.439869e+00  1.745577e+00
     vertex  1.300000e+01 -2.159710e+00  2.082223e+00
     vertex -3.000000e+00 -2.159710e+00  2.082223e+00
   endloop
 endfacet
 facet normal -7.101797e-17 -7.686471e-01  6.396730e-01
   outer loop
     vertex  1.300000e+01 -2.439869e+00  1.745577e+00
     vertex -3.000000e+00 -2.159710e+00  2.082223e+00
     vertex -3.000000e+00 -2.439869e+00  1.745577e+00
   endloop
 endfacet
 facet normal -5.783600e-17 -8.535931e-01  5.209403e-01
   outer loop
     vertex  1.300000e+01 -2.439869e+00  1.745577e+00
     vertex -3.000000e+00 -2.439869e+00  1.745577e+00
     vertex -3.000000e+00 -2.668026e+00  1.371727e+00
   endloop
 endfacet
 facet normal -5.783600e-17 -8.535931e-01  5.209403e-01
   outer loop
     vertex  1.300000e+01 -2.668026e+00  1.371727e+00
     vertex  1.300000e+01 -2.439869e+00  1.745577e+00
     vertex -3.000000e+00 -2.668026e+00  1.371727e+00
   endloop
 endfacet
 facet normal -4.342135e-17 -9.203462e-01  3.911047e-01
   outer loop
     vertex  1.300000e+01 -2.668026e+00  1.371727e+00
     vertex -3.000000e+00 -2.668026e+00  1.371727e+00
     vertex -3.000000e+00 -2.839319e+00  9.686412e-01
   endloop
 endfacet
 facet normal -4.342135e-17 -9.203462e-01  3.911047e-01
   outer loop
     vertex  1.300000e+01 -2.839319e+00  9.686412e-01
     vertex  1.300000e+01 -2.668026e+00  1.371727e+00
     vertex -3.000000e+00 -2.839319e+00  9.686412e-01
   endloop
 endfacet
 facet normal -2.772567e-17 -9.674837e-01  2.529334e-01
   outer loop
     vertex  1.300000e+01 -2.950097e+00  5.449106e-01
     vertex  1.300000e+01 -2.839319e+00  9.686412e-01
     vertex -3.000000e+00 -2.839319e+00  9.686412e-01
   endloop
 endfacet
 facet normal -2.808125e-17 -9.674837e-01  2.529334e-01
   outer loop
     vertex  1.300000e+01 -2.950097e+00  5.449106e-01
     vertex -3.000000e+00 -2.839319e+00  9.686412e-01
     vertex -3.000000e+00 -2.950097e+00  5.449106e-01
   endloop
 endfacet
 facet normal -1.214264e-17 -9.940010e-01  1.093712e-01
   outer loop
     vertex  1.300000e+01 -2.950097e+00  5.449106e-01
     vertex -3.000000e+00 -2.950097e+00  5.449106e-01
     vertex -3.000000e+00 -2.997999e+00  1.095661e-01
   endloop
 endfacet
 facet normal -1.214264e-17 -9.940010e-01  1.093712e-01
   outer loop
     vertex  1.300000e+01 -2.997999e+00  1.095661e-01
     vertex  1.300000e+01 -2.950097e+00  5.449106e-01
     vertex -3.000000e+00 -2.997999e+00  1.095661e-01
   endloop
 endfacet
 facet normal  4.054759e-18 -9.993328e-01 -3.652202e-02
   outer loop
     vertex  1.300000e+01 -2.997999e+00  1.095661e-01
     vertex -3.000000e+00 -2.997999e+00  1.095661e-01
     vertex -3.000000e+00 -2.982003e+00 -3.281136e-01
   endloop
 endfacet
 facet normal  4.054759e-18 -9.993328e-01 -3.652202e-02
   outer loop
     vertex  1.300000e+01 -2.982003e+00 -3.281136e-01
     vertex  1.300000e+01 -2.997999e+00  1.095661e-01
     vertex -3.000000e+00 -2.982003e+00 -3.281136e-01
   endloop
 endfacet
 facet normal  2.079425e-17 -9.833657e-01 -1.816369e-01
   outer loop
     vertex  1.300000e+01 -2.902451e+00 -7.588001e-01
     vertex  1.300000e+01 -2.982003e+00 -3.281136e-01
     vertex -3.000000e+00 -2.982003e+00 -3.281136e-01
   endloop
 endfacet
 facet normal  2.016574e-17 -9.833657e-01 -1.816369e-01
   outer loop
     vertex  1.300000e+01 -2.902451e+00 -7.588001e-01
     vertex -3.000000e+00 -2.982003e+00 -3.281136e-01
     vertex -3.000000e+00 -2.902451e+00 -7.588001e-01
   endloop
 endfacet
 facet normal  3.584693e-17 -9.464398e-01 -3.228804e-01
   outer loop
     vertex  1.300000e+01 -2.902451e+00 -7.588001e-01
     vertex -3.000000e+00 -2.902451e+00 -7.588001e-01
     vertex -3.000000e+00 -2.761039e+00 -1.173314e+00
   endloop
 endfacet
 facet normal  3.584693e-17 -9.464398e-01 -3.228804e-01
   outer loop
     vertex  1.300000e+01 -2.761039e+00 -1.173314e+00
     vertex  1.300000e+01 -2.902451e+00 -7.588001e-01
     vertex -3.000000e+00 -2.761039e+00 -1.173314e+00
   endloop
 endfacet
 facet normal  5.149053e-17 -8.893421e-01 -4.572423e-01
   outer loop
     vertex  1.300000e+01 -2.560779e+00 -1.562821e+00
     vertex  1.300000e+01 -2.761039e+00 -1.173314e+00
     vertex -3.000000e+00 -2.761039e+00 -1.173314e+00
   endloop
 endfacet
 facet normal  5.076410e-17 -8.893421e-01 -4.572423e-01
   outer loop
     vertex  1.300000e+01 -2.560779e+00 -1.562821e+00
     vertex -3.000000e+00 -2.761039e+00 -1.173314e+00
     vertex -3.000000e+00 -2.560779e+00 -1.562821e+00
   endloop
 endfacet
 facet normal  6.459932e-17 -8.132897e-01 -5.818589e-01
   outer loop
     vertex  1.300000e+01 -2.560779e+00 -1.562821e+00
     vertex -3.000000e+00 -2.560779e+00 -1.562821e+00
     vertex -3.000000e+00 -2.305941e+00 -1.919019e+00
   endloop
 endfacet
 facet normal  6.459932e-17 -8.132897e-01 -5.818589e-01
   outer loop
     vertex  1.300000e+01 -2.305941e+00 -1.919019e+00
     vertex  1.300000e+01 -2.560779e+00 -1.562821e+00
     vertex -3.000000e+00 -2.305941e+00 -1.919019e+00
   endloop
 endfacet
 facet normal  7.723580e-17 -7.199035e-01 -6.940742e-01
   outer loop
     vertex  1.300000e+01 -2.001956e+00 -2.234317e+00
     vertex  1.300000e+01 -2.305941e+00 -1.919019e+00
     vertex -3.000000e+00 -2.305941e+00 -1.919019e+00
   endloop
 endfacet
 facet normal  7.705772e-17 -7.199035e-01 -6.940742e-01
   outer loop
     vertex  1.300000e+01 -2.001956e+00 -2.234317e+00
     vertex -3.000000e+00 -2.305941e+00 -1.919019e+00
     vertex -3.000000e+00 -2.001956e+00 -2.234317e+00
   endloop
 endfacet
 facet normal  8.787376e-17 -6.111737e-01 -7.914965e-01
   outer loop
     vertex  1.300000e+01 -2.001956e+00 -2.234317e+00
     vertex -3.000000e+00 -2.001956e+00 -2.234317e+00
     vertex -3.000000e+00 -1.655303e+00 -2.501993e+00
   endloop
 endfacet
 facet normal  8.787376e-17 -6.111737e-01 -7.914965e-01
   outer loop
     vertex  1.300000e+01 -1.655303e+00 -2.501993e+00
     vertex  1.300000e+01 -2.001956e+00 -2.234317e+00
     vertex -3.000000e+00 -1.655303e+00 -2.501993e+00
   endloop
 endfacet
 facet normal  9.505944e-17 -4.894178e-01 -8.720494e-01
   outer loop
     vertex  1.300000e+01 -1.273370e+00 -2.716345e+00
     vertex  1.300000e+01 -1.655303e+00 -2.501993e+00
     vertex -3.000000e+00 -1.655303e+00 -2.501993e+00
   endloop
 endfacet
 facet normal  9.681693e-17 -4.894178e-01 -8.720494e-01
   outer loop
     vertex  1.300000e+01 -1.273370e+00 -2.716345e+00
     vertex -3.000000e+00 -1.655303e+00 -2.501993e+00
     vertex -3.000000e+00 -1.273370e+00 -2.716345e+00
   endloop
 endfacet
 facet normal  1.036966e-16 -3.572309e-01 -9.340161e-01
   outer loop
     vertex  1.300000e+01 -1.273370e+00 -2.716345e+00
     vertex -3.000000e+00 -1.273370e+00 -2.716345e+00
     vertex -3.000000e+00 -8.642973e-01 -2.872802e+00
   endloop
 endfacet
 facet normal  1.036966e-16 -3.572309e-01 -9.340161e-01
   outer loop
     vertex  1.300000e+01 -8.642973e-01 -2.872802e+00
     vertex  1.300000e+01 -1.273370e+00 -2.716345e+00
     vertex -3.000000e+00 -8.642973e-01 -2.872802e+00
   endloop
 endfacet
 facet normal  1.083662e-16 -2.174302e-01 -9.760759e-01
   outer loop
     vertex  1.300000e+01 -8.642973e-01 -2.872802e+00
     vertex -3.000000e+00 -8.642973e-01 -2.872802e+00
     vertex -3.000000e+00 -4.368035e-01 -2.968030e+00
   endloop
 endfacet
 facet normal  1.083662e-16 -2.174302e-01 -9.760759e-01
   outer loop
     vertex  1.300000e+01 -4.368035e-01 -2.968030e+00
     vertex  1.300000e+01 -8.642973e-01 -2.872802e+00
     vertex -3.000000e+00 -4.368035e-01 -2.968030e+00
   endloop
 endfacet
 facet normal  1.106551e-16 -7.299531e-02 -9.973323e-01
   outer loop
     vertex  1.300000e+01 -7.347881e-16 -3.000000e+00
     vertex  1.300000e+01 -4.368035e-01 -2.968030e+00
     vertex -3.000000e+00 -4.368035e-01 -2.968030e+00
   endloop
 endfacet
 facet normal  1.107261e-16 -7.299531e-02 -9.973323e-01
   outer loop
     vertex  1.300000e+01 -7.347881e-16 -3.000000e+00
     vertex -3.000000e+00 -4.368035e-01 -2.968030e+00
     vertex -3.000000e+00 -7.347881e-16 -3.000000e+00
   endloop
 endfacet
endsolid
