solid 
 facet normal  1.000000e+00  0.000000e+00  0.000000e+00
   outer loop
     vertex  8.000000e+00 -1.701803e+00  1.050650e+00
     vertex  8.000000e+00 -1.490231e+00  1.333871e+00
     vertex  8.000000e+00 -1.602287e+00  1.196945e+00
   endloop
 endfacet
 facet normal  1.000000e+00  0.000000e+00  0.000000e+00
   outer loop
     vertex  8.000000e+00 -1.999511e+00  4.424417e-02
     vertex  8.000000e+00 -1.860204e+00  7.346032e-01
     vertex  8.000000e+00 -1.917849e+00  5.673236e-01
   endloop
 endfacet
 facet normal  1.000000e+00  0.000000e+00  0.000000e+00
   outer loop
     vertex  8.000000e+00 -1.999511e+00  4.424417e-02
     vertex  8.000000e+00 -1.917849e+00  5.673236e-01
     vertex  8.000000e+00 -1.960484e+00  3.956038e-01
   endloop
 endfacet
 facet normal  1.000000e+00  0.000000e+00  0.000000e+00
   outer loop
     vertex  8.000000e+00 -1.999511e+00  4.424417e-02
     vertex  8.000000e+00 -1.960484e+00  3.956038e-01
     vertex  8.000000e+00 -1.987776e+00  2.207880e-01
   endloop
 endfacet
 facet normal  1.000000e+00  0.000000e+00  0.000000e+00
   outer loop
     vertex  8.000000e+00 -1.995596e+00 -1.326459e-01
     vertex  8.000000e+00 -1.701803e+00  1.050650e+00
     vertex  8.000000e+00 -1.788000e+00  8.961336e-01
   endloop
 endfacet
 facet normal  1.000000e+00  0.000000e+00  0.000000e+00
   outer loop
     vertex  8.000000e+00 -1.995596e+00 -1.326459e-01
     vertex  8.000000e+00 -1.788000e+00  8.961336e-01
     vertex  8.000000e+00 -1.860204e+00  7.346032e-01
   endloop
 endfacet
 facet normal  1.000000e+00  0.000000e+00 -0.000000e+00
   outer loop
     vertex  8.000000e+00 -1.995596e+00 -1.326459e-01
     vertex  8.000000e+00 -1.860204e+00  7.346032e-01
     vertex  8.000000e+00 -1.999511e+00  4.424417e-02
   endloop
 endfacet
 facet normal  1.000000e+00  0.000000e+00  0.000000e+00
   outer loop
     vertex  8.000000e+00 -1.941066e+00 -4.819354e-01
     vertex  8.000000e+00 -1.995596e+00 -1.326459e-01
     vertex  8.000000e+00 -1.976064e+00 -3.084979e-01
   endloop
 endfacet
 facet normal  1.000000e+00  0.000000e+00  0.000000e+00
   outer loop
     vertex  8.000000e+00 -1.890877e+00 -6.516011e-01
     vertex  8.000000e+00 -1.995596e+00 -1.326459e-01
     vertex  8.000000e+00 -1.941066e+00 -4.819354e-01
   endloop
 endfacet
 facet normal  1.000000e+00  0.000000e+00  0.000000e+00
   outer loop
     vertex  8.000000e+00  9.354686e-01  1.767738e+00
     vertex  8.000000e+00  7.755750e-01  1.843498e+00
     vertex  8.000000e+00  6.096115e-01  1.904829e+00
   endloop
 endfacet
 facet normal  1.000000e+00  0.000000e+00  0.000000e+00
   outer loop
     vertex  8.000000e+00  9.354686e-01  1.767738e+00
     vertex  8.000000e+00  6.096115e-01  1.904829e+00
     vertex  8.000000e+00  4.388770e-01  1.951253e+00
   endloop
 endfacet
 facet normal  1.000000e+00  0.000000e+00  0.000000e+00
   outer loop
     vertex  8.000000e+00  9.354686e-01  1.767738e+00
     vertex  8.000000e+00  4.388770e-01  1.951253e+00
     vertex  8.000000e+00  2.647077e-01  1.982405e+00
   endloop
 endfacet
 facet normal  1.000000e+00  0.000000e+00  0.000000e+00
   outer loop
     vertex  8.000000e+00 -1.746611e+00 -9.743457e-01
     vertex  8.000000e+00 -1.995596e+00 -1.326459e-01
     vertex  8.000000e+00 -1.890877e+00 -6.516011e-01
   endloop
 endfacet
 facet normal  1.000000e+00  0.000000e+00  0.000000e+00
   outer loop
     vertex  8.000000e+00 -1.746611e+00 -9.743457e-01
     vertex  8.000000e+00 -1.890877e+00 -6.516011e-01
     vertex  8.000000e+00 -1.825889e+00 -8.161672e-01
   endloop
 endfacet
 facet normal  1.000000e+00  0.000000e+00  0.000000e+00
   outer loop
     vertex  8.000000e+00  1.232098e+00  1.575416e+00
     vertex  8.000000e+00  1.088041e+00  1.678144e+00
     vertex  8.000000e+00  9.354686e-01  1.767738e+00
   endloop
 endfacet
 facet normal  1.000000e+00  0.000000e+00  0.000000e+00
   outer loop
     vertex  8.000000e+00 -1.547774e+00 -1.266648e+00
     vertex  8.000000e+00 -1.746611e+00 -9.743457e-01
     vertex  8.000000e+00 -1.653664e+00 -1.124899e+00
   endloop
 endfacet
 facet normal  1.000000e+00  0.000000e+00  0.000000e+00
   outer loop
     vertex  8.000000e+00 -1.300578e+00 -1.519374e+00
     vertex  8.000000e+00 -1.746611e+00 -9.743457e-01
     vertex  8.000000e+00 -1.547774e+00 -1.266648e+00
   endloop
 endfacet
 facet normal  1.000000e+00  0.000000e+00  0.000000e+00
   outer loop
     vertex  8.000000e+00 -1.300578e+00 -1.519374e+00
     vertex  8.000000e+00 -1.547774e+00 -1.266648e+00
     vertex  8.000000e+00 -1.429771e+00 -1.398483e+00
   endloop
 endfacet
 facet normal  1.000000e+00  0.000000e+00  0.000000e+00
   outer loop
     vertex  8.000000e+00  1.602287e+00  1.196945e+00
     vertex  8.000000e+00  1.490231e+00  1.333871e+00
     vertex  8.000000e+00  1.366512e+00  1.460358e+00
   endloop
 endfacet
 facet normal  1.000000e+00  0.000000e+00  0.000000e+00
   outer loop
     vertex  8.000000e+00  1.602287e+00  1.196945e+00
     vertex  8.000000e+00  1.366512e+00  1.460358e+00
     vertex  8.000000e+00  1.232098e+00  1.575416e+00
   endloop
 endfacet
 facet normal  1.000000e+00  0.000000e+00  0.000000e+00
   outer loop
     vertex  8.000000e+00 -1.012746e+00 -1.724629e+00
     vertex  8.000000e+00 -1.746611e+00 -9.743457e-01
     vertex  8.000000e+00 -1.300578e+00 -1.519374e+00
   endloop
 endfacet
 facet normal  1.000000e+00  0.000000e+00  0.000000e+00
   outer loop
     vertex  8.000000e+00 -1.012746e+00 -1.724629e+00
     vertex  8.000000e+00 -1.300578e+00 -1.519374e+00
     vertex  8.000000e+00 -1.161206e+00 -1.628374e+00
   endloop
 endfacet
 facet normal  1.000000e+00  0.000000e+00  0.000000e+00
   outer loop
     vertex  8.000000e+00  1.788000e+00  8.961336e-01
     vertex  8.000000e+00  1.701803e+00  1.050650e+00
     vertex  8.000000e+00  1.602287e+00  1.196945e+00
   endloop
 endfacet
 facet normal  1.000000e+00  0.000000e+00  0.000000e+00
   outer loop
     vertex  8.000000e+00 -8.563600e-01 -1.807387e+00
     vertex  8.000000e+00 -1.746611e+00 -9.743457e-01
     vertex  8.000000e+00 -1.012746e+00 -1.724629e+00
   endloop
 endfacet
 facet normal  1.000000e+00  0.000000e+00  0.000000e+00
   outer loop
     vertex  8.000000e+00  1.917849e+00  5.673236e-01
     vertex  8.000000e+00  9.354686e-01  1.767738e+00
     vertex  8.000000e+00  2.647077e-01  1.982405e+00
   endloop
 endfacet
 facet normal  1.000000e+00  0.000000e+00  0.000000e+00
   outer loop
     vertex  8.000000e+00  1.917849e+00  5.673236e-01
     vertex  8.000000e+00  1.860204e+00  7.346032e-01
     vertex  8.000000e+00  1.788000e+00  8.961336e-01
   endloop
 endfacet
 facet normal  1.000000e+00  0.000000e+00  0.000000e+00
   outer loop
     vertex  8.000000e+00  1.917849e+00  5.673236e-01
     vertex  8.000000e+00  1.232098e+00  1.575416e+00
     vertex  8.000000e+00  9.354686e-01  1.767738e+00
   endloop
 endfacet
 facet normal  1.000000e+00  0.000000e+00  0.000000e+00
   outer loop
     vertex  8.000000e+00  1.917849e+00  5.673236e-01
     vertex  8.000000e+00  2.647077e-01  1.982405e+00
     vertex  8.000000e+00  8.846669e-02  1.998042e+00
   endloop
 endfacet
 facet normal  1.000000e+00  0.000000e+00  0.000000e+00
   outer loop
     vertex  8.000000e+00  1.917849e+00  5.673236e-01
     vertex  8.000000e+00  8.846669e-02  1.998042e+00
     vertex  8.000000e+00 -8.846669e-02  1.998042e+00
   endloop
 endfacet
 facet normal  1.000000e+00  0.000000e+00  0.000000e+00
   outer loop
     vertex  8.000000e+00  1.917849e+00  5.673236e-01
     vertex  8.000000e+00 -8.846669e-02  1.998042e+00
     vertex  8.000000e+00 -2.647077e-01  1.982405e+00
   endloop
 endfacet
 facet normal  1.000000e+00  0.000000e+00  0.000000e+00
   outer loop
     vertex  8.000000e+00  1.917849e+00  5.673236e-01
     vertex  8.000000e+00  1.602287e+00  1.196945e+00
     vertex  8.000000e+00  1.232098e+00  1.575416e+00
   endloop
 endfacet
 facet normal  1.000000e+00  0.000000e+00  0.000000e+00
   outer loop
     vertex  8.000000e+00  1.917849e+00  5.673236e-01
     vertex  8.000000e+00 -2.647077e-01  1.982405e+00
     vertex  8.000000e+00 -4.388770e-01  1.951253e+00
   endloop
 endfacet
 facet normal  1.000000e+00  0.000000e+00  0.000000e+00
   outer loop
     vertex  8.000000e+00  1.917849e+00  5.673236e-01
     vertex  8.000000e+00  1.788000e+00  8.961336e-01
     vertex  8.000000e+00  1.602287e+00  1.196945e+00
   endloop
 endfacet
 facet normal  1.000000e+00  0.000000e+00  0.000000e+00
   outer loop
     vertex  8.000000e+00 -3.521370e-01 -1.968756e+00
     vertex  8.000000e+00 -1.701803e+00  1.050650e+00
     vertex  8.000000e+00 -1.995596e+00 -1.326459e-01
   endloop
 endfacet
 facet normal  1.000000e+00  0.000000e+00  0.000000e+00
   outer loop
     vertex  8.000000e+00 -3.521370e-01 -1.968756e+00
     vertex  8.000000e+00 -1.746611e+00 -9.743457e-01
     vertex  8.000000e+00 -8.563600e-01 -1.807387e+00
   endloop
 endfacet
 facet normal  1.000000e+00  0.000000e+00  0.000000e+00
   outer loop
     vertex  8.000000e+00 -3.521370e-01 -1.968756e+00
     vertex  8.000000e+00 -1.995596e+00 -1.326459e-01
     vertex  8.000000e+00 -1.746611e+00 -9.743457e-01
   endloop
 endfacet
 facet normal  1.000000e+00  0.000000e+00  0.000000e+00
   outer loop
     vertex  8.000000e+00 -3.521370e-01 -1.968756e+00
     vertex  8.000000e+00 -1.366512e+00  1.460358e+00
     vertex  8.000000e+00 -1.490231e+00  1.333871e+00
   endloop
 endfacet
 facet normal  1.000000e+00  0.000000e+00  0.000000e+00
   outer loop
     vertex  8.000000e+00 -3.521370e-01 -1.968756e+00
     vertex  8.000000e+00 -8.563600e-01 -1.807387e+00
     vertex  8.000000e+00 -6.932718e-01 -1.876000e+00
   endloop
 endfacet
 facet normal  1.000000e+00  0.000000e+00  0.000000e+00
   outer loop
     vertex  8.000000e+00 -3.521370e-01 -1.968756e+00
     vertex  8.000000e+00 -6.932718e-01 -1.876000e+00
     vertex  8.000000e+00 -5.247579e-01 -1.929930e+00
   endloop
 endfacet
 facet normal  1.000000e+00  0.000000e+00  0.000000e+00
   outer loop
     vertex  8.000000e+00 -3.521370e-01 -1.968756e+00
     vertex  8.000000e+00 -1.490231e+00  1.333871e+00
     vertex  8.000000e+00 -1.701803e+00  1.050650e+00
   endloop
 endfacet
 facet normal  1.000000e+00  0.000000e+00  0.000000e+00
   outer loop
     vertex  8.000000e+00 -1.767602e-01 -1.992174e+00
     vertex  8.000000e+00 -1.366512e+00  1.460358e+00
     vertex  8.000000e+00 -3.521370e-01 -1.968756e+00
   endloop
 endfacet
 facet normal  1.000000e+00  0.000000e+00 -0.000000e+00
   outer loop
     vertex  8.000000e+00  1.995596e+00 -1.326459e-01
     vertex  8.000000e+00  1.999511e+00  4.424417e-02
     vertex  8.000000e+00  1.987776e+00  2.207880e-01
   endloop
 endfacet
 facet normal  1.000000e+00  0.000000e+00  0.000000e+00
   outer loop
     vertex  8.000000e+00  1.995596e+00 -1.326459e-01
     vertex  8.000000e+00  1.987776e+00  2.207880e-01
     vertex  8.000000e+00  1.960484e+00  3.956038e-01
   endloop
 endfacet
 facet normal  1.000000e+00  0.000000e+00  0.000000e+00
   outer loop
     vertex  8.000000e+00  1.995596e+00 -1.326459e-01
     vertex  8.000000e+00  1.960484e+00  3.956038e-01
     vertex  8.000000e+00  1.917849e+00  5.673236e-01
   endloop
 endfacet
 facet normal  1.000000e+00  0.000000e+00  0.000000e+00
   outer loop
     vertex  8.000000e+00  1.767602e-01 -1.992174e+00
     vertex  8.000000e+00 -1.767602e-01 -1.992174e+00
     vertex  8.000000e+00 -4.898587e-16 -2.000000e+00
   endloop
 endfacet
 facet normal  1.000000e+00  0.000000e+00  0.000000e+00
   outer loop
     vertex  8.000000e+00  5.247579e-01 -1.929930e+00
     vertex  8.000000e+00  1.767602e-01 -1.992174e+00
     vertex  8.000000e+00  3.521370e-01 -1.968756e+00
   endloop
 endfacet
 facet normal  1.000000e+00  0.000000e+00  0.000000e+00
   outer loop
     vertex  8.000000e+00  1.890877e+00 -6.516011e-01
     vertex  8.000000e+00  1.941066e+00 -4.819354e-01
     vertex  8.000000e+00  1.976064e+00 -3.084979e-01
   endloop
 endfacet
 facet normal  1.000000e+00  0.000000e+00  0.000000e+00
   outer loop
     vertex  8.000000e+00  6.932718e-01 -1.876000e+00
     vertex  8.000000e+00 -1.767602e-01 -1.992174e+00
     vertex  8.000000e+00  1.767602e-01 -1.992174e+00
   endloop
 endfacet
 facet normal  1.000000e+00  0.000000e+00  0.000000e+00
   outer loop
     vertex  8.000000e+00  6.932718e-01 -1.876000e+00
     vertex  8.000000e+00  1.767602e-01 -1.992174e+00
     vertex  8.000000e+00  5.247579e-01 -1.929930e+00
   endloop
 endfacet
 facet normal  1.000000e+00  0.000000e+00  0.000000e+00
   outer loop
     vertex  8.000000e+00  1.825889e+00 -8.161672e-01
     vertex  8.000000e+00  1.976064e+00 -3.084979e-01
     vertex  8.000000e+00  1.995596e+00 -1.326459e-01
   endloop
 endfacet
 facet normal  1.000000e+00  0.000000e+00  0.000000e+00
   outer loop
     vertex  8.000000e+00  1.825889e+00 -8.161672e-01
     vertex  8.000000e+00  1.890877e+00 -6.516011e-01
     vertex  8.000000e+00  1.976064e+00 -3.084979e-01
   endloop
 endfacet
 facet normal  1.000000e+00  0.000000e+00  0.000000e+00
   outer loop
     vertex  8.000000e+00  8.563600e-01 -1.807387e+00
     vertex  8.000000e+00 -1.366512e+00  1.460358e+00
     vertex  8.000000e+00 -1.767602e-01 -1.992174e+00
   endloop
 endfacet
 facet normal  1.000000e+00  0.000000e+00  0.000000e+00
   outer loop
     vertex  8.000000e+00  8.563600e-01 -1.807387e+00
     vertex  8.000000e+00 -1.767602e-01 -1.992174e+00
     vertex  8.000000e+00  6.932718e-01 -1.876000e+00
   endloop
 endfacet
 facet normal  1.000000e+00  0.000000e+00  0.000000e+00
   outer loop
     vertex  8.000000e+00  1.653664e+00 -1.124899e+00
     vertex  8.000000e+00  1.746611e+00 -9.743457e-01
     vertex  8.000000e+00  1.825889e+00 -8.161672e-01
   endloop
 endfacet
 facet normal  1.000000e+00  0.000000e+00  0.000000e+00
   outer loop
     vertex  8.000000e+00  1.161206e+00 -1.628374e+00
     vertex  8.000000e+00  8.563600e-01 -1.807387e+00
     vertex  8.000000e+00  1.012746e+00 -1.724629e+00
   endloop
 endfacet
 facet normal  1.000000e+00  0.000000e+00  0.000000e+00
   outer loop
     vertex  8.000000e+00  1.429771e+00 -1.398483e+00
     vertex  8.000000e+00  1.161206e+00 -1.628374e+00
     vertex  8.000000e+00  1.300578e+00 -1.519374e+00
   endloop
 endfacet
 facet normal  1.000000e+00  0.000000e+00  0.000000e+00
   outer loop
     vertex  8.000000e+00  1.429771e+00 -1.398483e+00
     vertex  8.000000e+00  1.547774e+00 -1.266648e+00
     vertex  8.000000e+00  1.653664e+00 -1.124899e+00
   endloop
 endfacet
 facet normal  1.000000e+00  0.000000e+00  0.000000e+00
   outer loop
     vertex  8.000000e+00  1.429771e+00 -1.398483e+00
     vertex  8.000000e+00 -4.388770e-01  1.951253e+00
     vertex  8.000000e+00 -6.096115e-01  1.904829e+00
   endloop
 endfacet
 facet normal  1.000000e+00  0.000000e+00  0.000000e+00
   outer loop
     vertex  8.000000e+00  1.429771e+00 -1.398483e+00
     vertex  8.000000e+00 -6.096115e-01  1.904829e+00
     vertex  8.000000e+00 -7.755750e-01  1.843498e+00
   endloop
 endfacet
 facet normal  1.000000e+00  0.000000e+00  0.000000e+00
   outer loop
     vertex  8.000000e+00  1.429771e+00 -1.398483e+00
     vertex  8.000000e+00 -7.755750e-01  1.843498e+00
     vertex  8.000000e+00 -9.354686e-01  1.767738e+00
   endloop
 endfacet
 facet normal  1.000000e+00  0.000000e+00  0.000000e+00
   outer loop
     vertex  8.000000e+00  1.429771e+00 -1.398483e+00
     vertex  8.000000e+00 -9.354686e-01  1.767738e+00
     vertex  8.000000e+00 -1.088041e+00  1.678144e+00
   endloop
 endfacet
 facet normal  1.000000e+00  0.000000e+00  0.000000e+00
   outer loop
     vertex  8.000000e+00  1.429771e+00 -1.398483e+00
     vertex  8.000000e+00 -1.088041e+00  1.678144e+00
     vertex  8.000000e+00 -1.232098e+00  1.575416e+00
   endloop
 endfacet
 facet normal  1.000000e+00  0.000000e+00  0.000000e+00
   outer loop
     vertex  8.000000e+00  1.429771e+00 -1.398483e+00
     vertex  8.000000e+00 -1.232098e+00  1.575416e+00
     vertex  8.000000e+00 -1.366512e+00  1.460358e+00
   endloop
 endfacet
 facet normal  1.000000e+00  0.000000e+00 -0.000000e+00
   outer loop
     vertex  8.000000e+00  1.429771e+00 -1.398483e+00
     vertex  8.000000e+00  1.917849e+00  5.673236e-01
     vertex  8.000000e+00 -4.388770e-01  1.951253e+00
   endloop
 endfacet
 facet normal  1.000000e+00  0.000000e+00  0.000000e+00
   outer loop
     vertex  8.000000e+00  1.429771e+00 -1.398483e+00
     vertex  8.000000e+00  1.995596e+00 -1.326459e-01
     vertex  8.000000e+00  1.917849e+00  5.673236e-01
   endloop
 endfacet
 facet normal  1.000000e+00  0.000000e+00  0.000000e+00
   outer loop
     vertex  8.000000e+00  1.429771e+00 -1.398483e+00
     vertex  8.000000e+00  1.653664e+00 -1.124899e+00
     vertex  8.000000e+00  1.825889e+00 -8.161672e-01
   endloop
 endfacet
 facet normal  1.000000e+00  0.000000e+00  0.000000e+00
   outer loop
     vertex  8.000000e+00  1.429771e+00 -1.398483e+00
     vertex  8.000000e+00  8.563600e-01 -1.807387e+00
     vertex  8.000000e+00  1.161206e+00 -1.628374e+00
   endloop
 endfacet
 facet normal  1.000000e+00  0.000000e+00  0.000000e+00
   outer loop
     vertex  8.000000e+00  1.429771e+00 -1.398483e+00
     vertex  8.000000e+00 -1.366512e+00  1.460358e+00
     vertex  8.000000e+00  8.563600e-01 -1.807387e+00
   endloop
 endfacet
 facet normal  1.000000e+00  0.000000e+00  0.000000e+00
   outer loop
     vertex  8.000000e+00  1.429771e+00 -1.398483e+00
     vertex  8.000000e+00  1.825889e+00 -8.161672e-01
     vertex  8.000000e+00  1.995596e+00 -1.326459e-01
   endloop
 endfacet
endsolid
