solid 
 facet normal -1.000000e+00 -7.931416e-15  4.738800e-15
   outer loop
     vertex -3.000000e+00 -2.758583e+00  1.179075e+00
     vertex -3.000000e+00 -2.345494e+00  1.870469e+00
     vertex -3.000000e+00 -2.168385e+00  2.073188e+00
   endloop
 endfacet
 facet normal -1.000000e+00  0.000000e+00  0.000000e+00
   outer loop
     vertex -3.000000e+00 -2.758583e+00  1.179075e+00
     vertex -3.000000e+00 -2.503720e+00  1.652691e+00
     vertex -3.000000e+00 -2.345494e+00  1.870469e+00
   endloop
 endfacet
 facet normal -1.000000e+00  0.000000e+00  0.000000e+00
   outer loop
     vertex -3.000000e+00 -2.758583e+00  1.179075e+00
     vertex -3.000000e+00 -2.641787e+00  1.421606e+00
     vertex -3.000000e+00 -2.503720e+00  1.652691e+00
   endloop
 endfacet
 facet normal -1.000000e+00  0.000000e+00  0.000000e+00
   outer loop
     vertex -3.000000e+00 -2.972849e+00  4.026998e-01
     vertex -3.000000e+00 -2.924784e+00  6.675628e-01
     vertex -3.000000e+00 -2.853170e+00  9.270510e-01
   endloop
 endfacet
 facet normal -1.000000e+00  0.000000e+00  0.000000e+00
   outer loop
     vertex -3.000000e+00 -2.689179e-01  2.987923e+00
     vertex -3.000000e+00 -7.981105e-01  2.891889e+00
     vertex -3.000000e+00 -5.356707e-01  2.951789e+00
   endloop
 endfacet
 facet normal -1.000000e+00  0.000000e+00  0.000000e+00
   outer loop
     vertex -3.000000e+00 -2.689179e-01  2.987923e+00
     vertex -3.000000e+00 -1.054124e+00  2.808705e+00
     vertex -3.000000e+00 -7.981105e-01  2.891889e+00
   endloop
 endfacet
 facet normal -1.000000e+00  0.000000e+00  0.000000e+00
   outer loop
     vertex -3.000000e+00 -2.689179e-01  2.987923e+00
     vertex -3.000000e+00 -1.301651e+00  2.702907e+00
     vertex -3.000000e+00 -1.054124e+00  2.808705e+00
   endloop
 endfacet
 facet normal -1.000000e+00  0.000000e+00  0.000000e+00
   outer loop
     vertex -3.000000e+00 -2.689179e-01  2.987923e+00
     vertex -3.000000e+00 -1.538698e+00  2.575346e+00
     vertex -3.000000e+00 -1.301651e+00  2.702907e+00
   endloop
 endfacet
 facet normal -1.000000e+00  0.000000e+00  0.000000e+00
   outer loop
     vertex -3.000000e+00 -2.689179e-01  2.987923e+00
     vertex -3.000000e+00 -1.763356e+00  2.427051e+00
     vertex -3.000000e+00 -1.538698e+00  2.575346e+00
   endloop
 endfacet
 facet normal -1.000000e+00  0.000000e+00  0.000000e+00
   outer loop
     vertex -3.000000e+00 -2.689179e-01  2.987923e+00
     vertex -3.000000e+00 -1.973816e+00  2.259214e+00
     vertex -3.000000e+00 -1.763356e+00  2.427051e+00
   endloop
 endfacet
 facet normal -1.000000e+00  0.000000e+00  0.000000e+00
   outer loop
     vertex -3.000000e+00 -2.996979e+00  1.345945e-01
     vertex -3.000000e+00 -2.853170e+00  9.270510e-01
     vertex -3.000000e+00 -2.758583e+00  1.179075e+00
   endloop
 endfacet
 facet normal -1.000000e+00  0.000000e+00  0.000000e+00
   outer loop
     vertex -3.000000e+00 -2.996979e+00  1.345945e-01
     vertex -3.000000e+00 -2.972849e+00  4.026998e-01
     vertex -3.000000e+00 -2.853170e+00  9.270510e-01
   endloop
 endfacet
 facet normal -1.000000e+00  0.000000e+00  0.000000e+00
   outer loop
     vertex -3.000000e+00 -2.924784e+00 -6.675628e-01
     vertex -3.000000e+00 -2.972849e+00 -4.026998e-01
     vertex -3.000000e+00 -2.996979e+00 -1.345945e-01
   endloop
 endfacet
 facet normal -1.000000e+00  0.000000e+00  0.000000e+00
   outer loop
     vertex -3.000000e+00 -2.853170e+00 -9.270510e-01
     vertex -3.000000e+00 -2.924784e+00 -6.675628e-01
     vertex -3.000000e+00 -2.996979e+00 -1.345945e-01
   endloop
 endfacet
 facet normal -1.000000e+00  0.000000e+00  0.000000e+00
   outer loop
     vertex -3.000000e+00 -2.853170e+00 -9.270510e-01
     vertex -3.000000e+00 -2.996979e+00 -1.345945e-01
     vertex -3.000000e+00 -2.996979e+00  1.345945e-01
   endloop
 endfacet
 facet normal -1.000000e+00  0.000000e+00  0.000000e+00
   outer loop
     vertex -3.000000e+00  1.301651e+00  2.702907e+00
     vertex -3.000000e+00  7.981105e-01  2.891889e+00
     vertex -3.000000e+00  1.054124e+00  2.808705e+00
   endloop
 endfacet
 facet normal -1.000000e+00  0.000000e+00  0.000000e+00
   outer loop
     vertex -3.000000e+00  1.301651e+00  2.702907e+00
     vertex -3.000000e+00  5.356707e-01  2.951789e+00
     vertex -3.000000e+00  7.981105e-01  2.891889e+00
   endloop
 endfacet
 facet normal -1.000000e+00  0.000000e+00  0.000000e+00
   outer loop
     vertex -3.000000e+00  1.301651e+00  2.702907e+00
     vertex -3.000000e+00  2.689179e-01  2.987923e+00
     vertex -3.000000e+00  5.356707e-01  2.951789e+00
   endloop
 endfacet
 facet normal -1.000000e+00  0.000000e+00  0.000000e+00
   outer loop
     vertex -3.000000e+00  1.301651e+00  2.702907e+00
     vertex -3.000000e+00  3.673940e-16  3.000000e+00
     vertex -3.000000e+00  2.689179e-01  2.987923e+00
   endloop
 endfacet
 facet normal -1.000000e+00  0.000000e+00  0.000000e+00
   outer loop
     vertex -3.000000e+00 -2.345494e+00 -1.870469e+00
     vertex -3.000000e+00 -2.503720e+00 -1.652691e+00
     vertex -3.000000e+00 -2.641787e+00 -1.421606e+00
   endloop
 endfacet
 facet normal -1.000000e+00  0.000000e+00  0.000000e+00
   outer loop
     vertex -3.000000e+00  1.973816e+00  2.259214e+00
     vertex -3.000000e+00  1.538698e+00  2.575346e+00
     vertex -3.000000e+00  1.763356e+00  2.427051e+00
   endloop
 endfacet
 facet normal -1.000000e+00  0.000000e+00  0.000000e+00
   outer loop
     vertex -3.000000e+00  1.973816e+00  2.259214e+00
     vertex -3.000000e+00  1.301651e+00  2.702907e+00
     vertex -3.000000e+00  1.538698e+00  2.575346e+00
   endloop
 endfacet
 facet normal -1.000000e+00  1.025693e-14  6.770538e-15
   outer loop
     vertex -3.000000e+00 -2.168385e+00 -2.073188e+00
     vertex -3.000000e+00 -2.345494e+00 -1.870469e+00
     vertex -3.000000e+00 -2.641787e+00 -1.421606e+00
   endloop
 endfacet
 facet normal -1.000000e+00  1.744039e-15  6.545489e-16
   outer loop
     vertex -3.000000e+00 -2.168385e+00 -2.073188e+00
     vertex -3.000000e+00 -2.758583e+00 -1.179075e+00
     vertex -3.000000e+00 -2.853170e+00 -9.270510e-01
   endloop
 endfacet
 facet normal -1.000000e+00  2.782223e-15  1.339848e-15
   outer loop
     vertex -3.000000e+00 -2.168385e+00 -2.073188e+00
     vertex -3.000000e+00 -2.641787e+00 -1.421606e+00
     vertex -3.000000e+00 -2.758583e+00 -1.179075e+00
   endloop
 endfacet
 facet normal -1.000000e+00  0.000000e+00  0.000000e+00
   outer loop
     vertex -3.000000e+00  2.168385e+00  2.073188e+00
     vertex -3.000000e+00  3.673940e-16  3.000000e+00
     vertex -3.000000e+00  1.301651e+00  2.702907e+00
   endloop
 endfacet
 facet normal -1.000000e+00  0.000000e+00  0.000000e+00
   outer loop
     vertex -3.000000e+00  2.168385e+00  2.073188e+00
     vertex -3.000000e+00 -2.689179e-01  2.987923e+00
     vertex -3.000000e+00  3.673940e-16  3.000000e+00
   endloop
 endfacet
 facet normal -1.000000e+00  0.000000e+00  0.000000e+00
   outer loop
     vertex -3.000000e+00  2.168385e+00  2.073188e+00
     vertex -3.000000e+00  1.301651e+00  2.702907e+00
     vertex -3.000000e+00  1.973816e+00  2.259214e+00
   endloop
 endfacet
 facet normal -1.000000e+00 -8.640199e-16 -9.036939e-16
   outer loop
     vertex -3.000000e+00 -1.973816e+00 -2.259214e+00
     vertex -3.000000e+00 -2.168385e+00 -2.073188e+00
     vertex -3.000000e+00 -2.853170e+00 -9.270510e-01
   endloop
 endfacet
 facet normal -1.000000e+00  1.488922e-14  1.081765e-14
   outer loop
     vertex -3.000000e+00  2.503720e+00  1.652691e+00
     vertex -3.000000e+00  2.168385e+00  2.073188e+00
     vertex -3.000000e+00  2.345494e+00  1.870469e+00
   endloop
 endfacet
 facet normal -1.000000e+00  0.000000e+00  0.000000e+00
   outer loop
     vertex -3.000000e+00 -1.301651e+00 -2.702907e+00
     vertex -3.000000e+00 -1.538698e+00 -2.575346e+00
     vertex -3.000000e+00 -1.763356e+00 -2.427051e+00
   endloop
 endfacet
 facet normal -1.000000e+00  0.000000e+00  0.000000e+00
   outer loop
     vertex -3.000000e+00  2.758583e+00  1.179075e+00
     vertex -3.000000e+00  2.503720e+00  1.652691e+00
     vertex -3.000000e+00  2.641787e+00  1.421606e+00
   endloop
 endfacet
 facet normal -1.000000e+00  4.072118e-15  2.191300e-15
   outer loop
     vertex -3.000000e+00  2.758583e+00  1.179075e+00
     vertex -3.000000e+00  2.168385e+00  2.073188e+00
     vertex -3.000000e+00  2.503720e+00  1.652691e+00
   endloop
 endfacet
 facet normal -1.000000e+00  0.000000e+00  0.000000e+00
   outer loop
     vertex -3.000000e+00 -1.054124e+00 -2.808705e+00
     vertex -3.000000e+00 -1.301651e+00 -2.702907e+00
     vertex -3.000000e+00 -1.763356e+00 -2.427051e+00
   endloop
 endfacet
 facet normal -1.000000e+00  0.000000e+00  0.000000e+00
   outer loop
     vertex -3.000000e+00 -1.054124e+00 -2.808705e+00
     vertex -3.000000e+00 -1.763356e+00 -2.427051e+00
     vertex -3.000000e+00 -1.973816e+00 -2.259214e+00
   endloop
 endfacet
 facet normal -1.000000e+00  1.744039e-15  6.545489e-16
   outer loop
     vertex -3.000000e+00  2.853170e+00  9.270510e-01
     vertex -3.000000e+00  2.168385e+00  2.073188e+00
     vertex -3.000000e+00  2.758583e+00  1.179075e+00
   endloop
 endfacet
 facet normal -1.000000e+00  0.000000e+00  0.000000e+00
   outer loop
     vertex -3.000000e+00 -7.981105e-01 -2.891889e+00
     vertex -3.000000e+00 -1.054124e+00 -2.808705e+00
     vertex -3.000000e+00 -1.973816e+00 -2.259214e+00
   endloop
 endfacet
 facet normal -1.000000e+00  0.000000e+00  0.000000e+00
   outer loop
     vertex -3.000000e+00 -2.689179e-01 -2.987923e+00
     vertex -3.000000e+00 -7.981105e-01 -2.891889e+00
     vertex -3.000000e+00 -1.973816e+00 -2.259214e+00
   endloop
 endfacet
 facet normal -1.000000e+00  0.000000e+00  0.000000e+00
   outer loop
     vertex -3.000000e+00 -2.689179e-01 -2.987923e+00
     vertex -3.000000e+00 -5.356707e-01 -2.951789e+00
     vertex -3.000000e+00 -7.981105e-01 -2.891889e+00
   endloop
 endfacet
 facet normal -1.000000e+00  0.000000e+00  0.000000e+00
   outer loop
     vertex -3.000000e+00  2.996979e+00 -1.345945e-01
     vertex -3.000000e+00  2.972849e+00  4.026998e-01
     vertex -3.000000e+00  2.996979e+00  1.345945e-01
   endloop
 endfacet
 facet normal -1.000000e+00  0.000000e+00  0.000000e+00
   outer loop
     vertex -3.000000e+00  2.996979e+00 -1.345945e-01
     vertex -3.000000e+00  2.924784e+00  6.675628e-01
     vertex -3.000000e+00  2.972849e+00  4.026998e-01
   endloop
 endfacet
 facet normal -1.000000e+00  0.000000e+00  0.000000e+00
   outer loop
     vertex -3.000000e+00  2.996979e+00 -1.345945e-01
     vertex -3.000000e+00  2.853170e+00  9.270510e-01
     vertex -3.000000e+00  2.924784e+00  6.675628e-01
   endloop
 endfacet
 facet normal -1.000000e+00 -8.786850e-17 -2.341248e-16
   outer loop
     vertex -3.000000e+00  2.996979e+00 -1.345945e-01
     vertex -3.000000e+00 -2.689179e-01  2.987923e+00
     vertex -3.000000e+00  2.168385e+00  2.073188e+00
   endloop
 endfacet
 facet normal -1.000000e+00  5.941372e-17 -6.214188e-17
   outer loop
     vertex -3.000000e+00  2.996979e+00 -1.345945e-01
     vertex -3.000000e+00 -2.168385e+00  2.073188e+00
     vertex -3.000000e+00 -1.973816e+00  2.259214e+00
   endloop
 endfacet
 facet normal -1.000000e+00  8.386476e-16  1.136025e-16
   outer loop
     vertex -3.000000e+00  2.996979e+00 -1.345945e-01
     vertex -3.000000e+00  2.168385e+00  2.073188e+00
     vertex -3.000000e+00  2.853170e+00  9.270510e-01
   endloop
 endfacet
 facet normal -1.000000e+00 -9.852091e-17 -4.316483e-16
   outer loop
     vertex -3.000000e+00  2.996979e+00 -1.345945e-01
     vertex -3.000000e+00 -2.758583e+00  1.179075e+00
     vertex -3.000000e+00 -2.168385e+00  2.073188e+00
   endloop
 endfacet
 facet normal -1.000000e+00  4.200859e-17 -9.828399e-17
   outer loop
     vertex -3.000000e+00  2.996979e+00 -1.345945e-01
     vertex -3.000000e+00 -1.973816e+00  2.259214e+00
     vertex -3.000000e+00 -2.689179e-01  2.987923e+00
   endloop
 endfacet
 facet normal -1.000000e+00 -0.000000e+00  0.000000e+00
   outer loop
     vertex -3.000000e+00  2.689179e-01 -2.987923e+00
     vertex -3.000000e+00 -7.347881e-16 -3.000000e+00
     vertex -3.000000e+00 -2.689179e-01 -2.987923e+00
   endloop
 endfacet
 facet normal -1.000000e+00  0.000000e+00  0.000000e+00
   outer loop
     vertex -3.000000e+00  2.853170e+00 -9.270510e-01
     vertex -3.000000e+00  2.972849e+00 -4.026998e-01
     vertex -3.000000e+00  2.924784e+00 -6.675628e-01
   endloop
 endfacet
 facet normal -1.000000e+00  0.000000e+00  0.000000e+00
   outer loop
     vertex -3.000000e+00  2.853170e+00 -9.270510e-01
     vertex -3.000000e+00  2.996979e+00 -1.345945e-01
     vertex -3.000000e+00  2.972849e+00 -4.026998e-01
   endloop
 endfacet
 facet normal -1.000000e+00  0.000000e+00  0.000000e+00
   outer loop
     vertex -3.000000e+00  2.853170e+00 -9.270510e-01
     vertex -3.000000e+00 -2.758583e+00  1.179075e+00
     vertex -3.000000e+00  2.996979e+00 -1.345945e-01
   endloop
 endfacet
 facet normal -1.000000e+00  0.000000e+00  0.000000e+00
   outer loop
     vertex -3.000000e+00  2.853170e+00 -9.270510e-01
     vertex -3.000000e+00 -2.996979e+00  1.345945e-01
     vertex -3.000000e+00 -2.758583e+00  1.179075e+00
   endloop
 endfacet
 facet normal -1.000000e+00  0.000000e+00  0.000000e+00
   outer loop
     vertex -3.000000e+00  1.054124e+00 -2.808705e+00
     vertex -3.000000e+00  7.981105e-01 -2.891889e+00
     vertex -3.000000e+00  5.356707e-01 -2.951789e+00
   endloop
 endfacet
 facet normal -1.000000e+00  0.000000e+00  0.000000e+00
   outer loop
     vertex -3.000000e+00  2.758583e+00 -1.179075e+00
     vertex -3.000000e+00 -2.996979e+00  1.345945e-01
     vertex -3.000000e+00  2.853170e+00 -9.270510e-01
   endloop
 endfacet
 facet normal -1.000000e+00  0.000000e+00  0.000000e+00
   outer loop
     vertex -3.000000e+00  1.301651e+00 -2.702907e+00
     vertex -3.000000e+00  5.356707e-01 -2.951789e+00
     vertex -3.000000e+00  2.689179e-01 -2.987923e+00
   endloop
 endfacet
 facet normal -1.000000e+00  0.000000e+00  0.000000e+00
   outer loop
     vertex -3.000000e+00  1.301651e+00 -2.702907e+00
     vertex -3.000000e+00  2.689179e-01 -2.987923e+00
     vertex -3.000000e+00 -2.689179e-01 -2.987923e+00
   endloop
 endfacet
 facet normal -1.000000e+00  0.000000e+00  0.000000e+00
   outer loop
     vertex -3.000000e+00  1.301651e+00 -2.702907e+00
     vertex -3.000000e+00  1.054124e+00 -2.808705e+00
     vertex -3.000000e+00  5.356707e-01 -2.951789e+00
   endloop
 endfacet
 facet normal -1.000000e+00 -0.000000e+00  0.000000e+00
   outer loop
     vertex -3.000000e+00  1.538698e+00 -2.575346e+00
     vertex -3.000000e+00 -2.689179e-01 -2.987923e+00
     vertex -3.000000e+00 -1.973816e+00 -2.259214e+00
   endloop
 endfacet
 facet normal -1.000000e+00  0.000000e+00  0.000000e+00
   outer loop
     vertex -3.000000e+00  1.538698e+00 -2.575346e+00
     vertex -3.000000e+00  1.301651e+00 -2.702907e+00
     vertex -3.000000e+00 -2.689179e-01 -2.987923e+00
   endloop
 endfacet
 facet normal -1.000000e+00  0.000000e+00  0.000000e+00
   outer loop
     vertex -3.000000e+00  2.345494e+00 -1.870469e+00
     vertex -3.000000e+00  2.641787e+00 -1.421606e+00
     vertex -3.000000e+00  2.503720e+00 -1.652691e+00
   endloop
 endfacet
 facet normal -1.000000e+00  0.000000e+00  0.000000e+00
   outer loop
     vertex -3.000000e+00  2.345494e+00 -1.870469e+00
     vertex -3.000000e+00  2.758583e+00 -1.179075e+00
     vertex -3.000000e+00  2.641787e+00 -1.421606e+00
   endloop
 endfacet
 facet normal -1.000000e+00  0.000000e+00  0.000000e+00
   outer loop
     vertex -3.000000e+00  2.168385e+00 -2.073188e+00
     vertex -3.000000e+00  1.763356e+00 -2.427051e+00
     vertex -3.000000e+00  1.538698e+00 -2.575346e+00
   endloop
 endfacet
 facet normal -1.000000e+00  0.000000e+00  0.000000e+00
   outer loop
     vertex -3.000000e+00  2.168385e+00 -2.073188e+00
     vertex -3.000000e+00  1.973816e+00 -2.259214e+00
     vertex -3.000000e+00  1.763356e+00 -2.427051e+00
   endloop
 endfacet
 facet normal -1.000000e+00  9.125810e-17  1.236175e-17
   outer loop
     vertex -3.000000e+00  2.168385e+00 -2.073188e+00
     vertex -3.000000e+00 -2.853170e+00 -9.270510e-01
     vertex -3.000000e+00 -2.996979e+00  1.345945e-01
   endloop
 endfacet
 facet normal -1.000000e+00  1.454015e-17 -3.237615e-16
   outer loop
     vertex -3.000000e+00  2.168385e+00 -2.073188e+00
     vertex -3.000000e+00 -1.973816e+00 -2.259214e+00
     vertex -3.000000e+00 -2.853170e+00 -9.270510e-01
   endloop
 endfacet
 facet normal -1.000000e+00  0.000000e+00  0.000000e+00
   outer loop
     vertex -3.000000e+00  2.168385e+00 -2.073188e+00
     vertex -3.000000e+00  1.538698e+00 -2.575346e+00
     vertex -3.000000e+00 -1.973816e+00 -2.259214e+00
   endloop
 endfacet
 facet normal -1.000000e+00 -7.931416e-15  4.738800e-15
   outer loop
     vertex -3.000000e+00  2.168385e+00 -2.073188e+00
     vertex -3.000000e+00  2.758583e+00 -1.179075e+00
     vertex -3.000000e+00  2.345494e+00 -1.870469e+00
   endloop
 endfacet
 facet normal -1.000000e+00 -9.852091e-17 -4.316483e-16
   outer loop
     vertex -3.000000e+00  2.168385e+00 -2.073188e+00
     vertex -3.000000e+00 -2.996979e+00  1.345945e-01
     vertex -3.000000e+00  2.758583e+00 -1.179075e+00
   endloop
 endfacet
endsolid
